<?xml version="1.0" encoding="UTF-8" standalone="no"?>
<!-- Created with Inkscape (http://www.inkscape.org/) -->

<svg
 xmlns:dc="http://purl.org/dc/elements/1.1/"
 xmlns:cc="http://creativecommons.org/ns#"
 xmlns:rdf="http://www.w3.org/1999/02/22-rdf-syntax-ns#"
 xmlns:svg="http://www.w3.org/2000/svg"
 xmlns="http://www.w3.org/2000/svg"
 xmlns:xlink="http://www.w3.org/1999/xlink"
 xmlns:sodipodi="http://sodipodi.sourceforge.net/DTD/sodipodi-0.dtd"
 xmlns:inkscape="http://www.inkscape.org/namespaces/inkscape"
 version="1.0"
 width="96"
 height="96"
 id="svg2408"
 inkscape:version="0.48.2 r9819"
 sodipodi:docname="gtk-yes.svg">
<sodipodi:namedview
 pagecolor="#ffffff"
 bordercolor="#666666"
 borderopacity="1"
 objecttolerance="10"
 gridtolerance="10"
 guidetolerance="10"
 inkscape:pageopacity="0"
 inkscape:pageshadow="2"
 inkscape:window-width="1920"
 inkscape:window-height="1148"
 id="namedview93"
 showgrid="false"
 inkscape:zoom="1"
 inkscape:cx="58.666667"
 inkscape:cy="44.611037"
 inkscape:window-x="-8"
 inkscape:window-y="22"
 inkscape:window-maximized="1"
 inkscape:current-layer="svg2408" />
<defs
 id="defs2410">
<linearGradient
 id="linearGradient3637">
<stop
 id="stop3639"
 style="stop-color:#f0f0f0;stop-opacity:1"
 offset="0" />
<stop
 id="stop3641"
 style="stop-color:#aaaaaa;stop-opacity:1"
 offset="1" />
</linearGradient>
<linearGradient
 x1="45.447727"
 y1="92.539597"
 x2="45.447727"
 y2="7.0165396"
 id="ButtonShadow"
 gradientUnits="userSpaceOnUse"
 gradientTransform="scale(1.0058652,0.994169)">
<stop
 id="stop3750"
 style="stop-color:#000000;stop-opacity:1"
 offset="0" />
<stop
 id="stop3752"
 style="stop-color:#000000;stop-opacity:0.58823532"
 offset="1" />
</linearGradient>
<linearGradient
 id="linearGradient3737">
<stop
 id="stop3739"
 style="stop-color:#ffffff;stop-opacity:1"
 offset="0" />
<stop
 id="stop3741"
 style="stop-color:#ffffff;stop-opacity:0"
 offset="1" />
</linearGradient>
<linearGradient
 id="linearGradient3700">
<stop
 id="stop3702"
 style="stop-color:#2276c5;stop-opacity:1"
 offset="0" />
<stop
 id="stop3704"
 style="stop-color:#68baf4;stop-opacity:1"
 offset="1" />
</linearGradient>
<filter
 color-interpolation-filters="sRGB"
 id="filter3174">
<feGaussianBlur
 id="feGaussianBlur3176"
 stdDeviation="1.71" />
</filter>
<linearGradient
 x1="36.357143"
 y1="6"
 x2="36.357143"
 y2="63.893143"
 id="linearGradient3188"
 xlink:href="#linearGradient3737"
 gradientUnits="userSpaceOnUse" />
<filter
 x="-0.192"
 y="-0.192"
 width="1.3839999"
 height="1.3839999"
 color-interpolation-filters="sRGB"
 id="filter3794">
<feGaussianBlur
 id="feGaussianBlur3796"
 stdDeviation="5.28" />
</filter>
<linearGradient
 x1="48"
 y1="20.220806"
 x2="48"
 y2="138.66119"
 id="linearGradient3613"
 xlink:href="#linearGradient3737"
 gradientUnits="userSpaceOnUse" />
<radialGradient
 cx="48"
 cy="90.171875"
 r="42"
 fx="48"
 fy="90.171875"
 id="radialGradient3619"
 xlink:href="#linearGradient3737"
 gradientUnits="userSpaceOnUse"
 gradientTransform="matrix(1.1573129,0,0,0.99590774,-7.5510206,0.19713193)" />
<clipPath
 id="clipPath3613">
<rect
 width="84"
 height="84"
 rx="6"
 ry="6"
 x="6"
 y="6"
 id="rect3615"
 style="fill:#ffffff;fill-opacity:1;fill-rule:nonzero;stroke:none" />
</clipPath>
<linearGradient
 x1="48"
 y1="90"
 x2="48"
 y2="5.9877172"
 id="linearGradient2843"
 xlink:href="#linearGradient3700"
 gradientUnits="userSpaceOnUse"
 gradientTransform="translate(0,100)" />
<clipPath
 id="clipPath3625">
<path
 d="M 0,0 0,96 96,96 96,0 0,0 z m 12,6 72,0 c 3.324,0 6,2.676 6,6 l 0,72 c 0,3.324 -2.676,6 -6,6 L 12,90 C 8.676,90 6,87.324 6,84 L 6,12 C 6,8.676 8.676,6 12,6 z"
 inkscape:connector-curvature="0"
 id="path3627"
 style="fill:#ffffff;fill-opacity:1;stroke:none" />
</clipPath>
<linearGradient
 x1="44.512066"
 y1="6"
 x2="44.512066"
 y2="90.015434"
 id="linearGradient3643"
 xlink:href="#linearGradient3637"
 gradientUnits="userSpaceOnUse" />
<clipPath
 id="clipPath3649">
<rect
 width="76"
 height="76"
 rx="4"
 ry="4"
 x="10"
 y="10"
 id="rect3651"
 style="fill:#ffffff;fill-opacity:1;fill-rule:nonzero;stroke:none" />
</clipPath>
<filter
 color-interpolation-filters="sRGB"
 id="filter3657">
<feGaussianBlur
 id="feGaussianBlur3659"
 stdDeviation="1.14" />
</filter>
<linearGradient
 x1="45.447727"
 y1="92.539597"
 x2="45.447727"
 y2="7.0165396"
 id="ButtonShadow-0"
 gradientUnits="userSpaceOnUse"
 gradientTransform="matrix(1.0058652,0,0,0.994169,100,0)">
<stop
 id="stop3750-8"
 style="stop-color:#000000;stop-opacity:1"
 offset="0" />
<stop
 id="stop3752-5"
 style="stop-color:#000000;stop-opacity:0.58823532"
 offset="1" />
</linearGradient>
<linearGradient
 x1="32.251034"
 y1="6.1317081"
 x2="32.251034"
 y2="90.238609"
 id="linearGradient3780"
 xlink:href="#ButtonShadow-0"
 gradientUnits="userSpaceOnUse"
 gradientTransform="matrix(1.0238095,0,0,-1.0119048,-1.1428571,98.071429)" />
<linearGradient
 x1="32.251034"
 y1="6.1317081"
 x2="32.251034"
 y2="90.238609"
 id="linearGradient3772"
 xlink:href="#ButtonShadow-0"
 gradientUnits="userSpaceOnUse"
 gradientTransform="matrix(1.0238095,0,0,-1.0119048,-1.1428571,98.071429)" />
<linearGradient
 x1="32.251034"
 y1="6.1317081"
 x2="32.251034"
 y2="90.238609"
 id="linearGradient3725"
 xlink:href="#ButtonShadow-0"
 gradientUnits="userSpaceOnUse"
 gradientTransform="matrix(1.0238095,0,0,-1.0119048,-1.1428571,98.071429)" />
<linearGradient
 x1="32.251034"
 y1="6.1317081"
 x2="32.251034"
 y2="90.238609"
 id="linearGradient3721"
 xlink:href="#ButtonShadow-0"
 gradientUnits="userSpaceOnUse"
 gradientTransform="matrix(1,0,0,-1,0,97)" />
<linearGradient
 x1="32.251034"
 y1="6.1317081"
 x2="32.251034"
 y2="90.238609"
 id="linearGradient3199"
 xlink:href="#ButtonShadow-0"
 gradientUnits="userSpaceOnUse"
 gradientTransform="matrix(1.0238095,0,0,-1.0119048,-1.1428571,98.071429)" />
<linearGradient
 x1="36.357143"
 y1="6"
 x2="36.357143"
 y2="63.893143"
 id="linearGradient3188-8"
 xlink:href="#linearGradient3737-3"
 gradientUnits="userSpaceOnUse" />
<linearGradient
 id="linearGradient3737-3">
<stop
 id="stop3739-6"
 style="stop-color:#ffffff;stop-opacity:1"
 offset="0" />
<stop
 id="stop3741-1"
 style="stop-color:#ffffff;stop-opacity:0"
 offset="1" />
</linearGradient>
<radialGradient
 cx="48"
 cy="90.171875"
 r="42"
 fx="48"
 fy="90.171875"
 id="radialGradient3619-3"
 xlink:href="#linearGradient3737-3"
 gradientUnits="userSpaceOnUse"
 gradientTransform="matrix(1.1573129,0,0,0.99590774,-7.551021,0.1971319)" />
<linearGradient
 x1="104"
 y1="8"
 x2="120"
 y2="8"
 id="linearGradient3905"
 xlink:href="#linearGradient3637"
 gradientUnits="userSpaceOnUse"
 gradientTransform="translate(-104,104)" />
<linearGradient
 x1="104"
 y1="8"
 x2="120"
 y2="8"
 id="linearGradient3913"
 xlink:href="#linearGradient3183-0"
 gradientUnits="userSpaceOnUse"
 gradientTransform="translate(-144,104)" />
<linearGradient
 id="linearGradient3183-0">
<stop
 id="stop3185-9"
 style="stop-color:#c80000;stop-opacity:1"
 offset="0" />
<stop
 id="stop3187-6"
 style="stop-color:#f3604d;stop-opacity:1"
 offset="1" />
</linearGradient>
<linearGradient
 x1="13"
 y1="3"
 x2="13"
 y2="19"
 id="linearGradient3022"
 xlink:href="#linearGradient3637"
 gradientUnits="userSpaceOnUse"
 gradientTransform="matrix(3.25,0,0,3.25,12.25,12.25)" />
<linearGradient
 inkscape:collect="always"
 xlink:href="#linearGradient3183-0"
 id="linearGradient3083"
 gradientUnits="userSpaceOnUse"
 gradientTransform="translate(-144,104)"
 x1="104"
 y1="8"
 x2="120"
 y2="8" />
<linearGradient
 inkscape:collect="always"
 xlink:href="#linearGradient3637"
 id="linearGradient3088"
 gradientUnits="userSpaceOnUse"
 gradientTransform="translate(-104,104)"
 x1="104"
 y1="8"
 x2="120"
 y2="8" />
<linearGradient
 inkscape:collect="always"
 xlink:href="#linearGradient3637-1"
 id="linearGradient3073"
 gradientUnits="userSpaceOnUse"
 gradientTransform="matrix(-2.9953617,0,0,2.9953617,81.137933,16.173028)"
 x1="10.710332"
 y1="1.9963325"
 x2="10.710332"
 y2="18.974037" />
<linearGradient
 id="linearGradient3637-1">
<stop
 id="stop3639-7"
 style="stop-color:#f0f0f0;stop-opacity:1"
 offset="0" />
<stop
 id="stop3641-4"
 style="stop-color:#aaaaaa;stop-opacity:1"
 offset="1" />
</linearGradient>
<linearGradient
 inkscape:collect="always"
 xlink:href="#linearGradient3637"
 id="linearGradient3125"
 gradientUnits="userSpaceOnUse"
 gradientTransform="matrix(2.4375,0,0,2.4375,5.6319444,3.2152778)"
 x1="13"
 y1="3"
 x2="13"
 y2="19" />
<linearGradient
 inkscape:collect="always"
 xlink:href="#linearGradient3637"
 id="linearGradient3135"
 gradientUnits="userSpaceOnUse"
 gradientTransform="matrix(2.4375,0,0,2.4375,5.6319444,3.2152778)"
 x1="13"
 y1="3"
 x2="13"
 y2="19" />
</defs>
<metadata
 id="metadata2413">
<rdf:RDF>
<cc:Work
 rdf:about="">
<dc:format>image/svg+xml</dc:format>
<dc:type
 rdf:resource="http://purl.org/dc/dcmitype/StillImage" />
<dc:title></dc:title>
</cc:Work>
</rdf:RDF>
</metadata>
<g
 id="layer2"
 style="display:none">
<rect
 width="86"
 height="85"
 rx="6"
 ry="6"
 x="5"
 y="7"
 clip-path="url(#clipPath3625)"
 id="rect3745"
 style="opacity:0.9;fill:url(#ButtonShadow);fill-opacity:1;fill-rule:nonzero;stroke:none;filter:url(#filter3174)" />
</g>
<g
 id="layer1"
 style="display:none">
<rect
 width="84"
 height="84"
 rx="6"
 ry="6"
 x="6"
 y="6"
 id="rect2419"
 style="opacity:0.8;fill:#000000;fill-opacity:1;fill-rule:nonzero;stroke:none" />
<path
 d="m 14,10 c -2.216,0 -4,1.784 -4,4 l 0,68 c 0,2.216 1.784,4 4,4 l 68,0 c 2.216,0 4,-1.784 4,-4 l 0,-68 c 0,-2.216 -1.784,-4 -4,-4 l -68,0 z m 0,3.0625 68,0 c 0.578769,0 0.9375,0.358731 0.9375,0.9375 l 0,68 c 0,0.578769 -0.358731,0.9375 -0.9375,0.9375 l -68,0 c -0.578769,0 -0.9375,-0.358731 -0.9375,-0.9375 l 0,-68 c 0,-0.578769 0.358731,-0.9375 0.9375,-0.9375 z"
 inkscape:connector-curvature="0"
 id="rect3726"
 style="opacity:0.07999998;fill:#000000;fill-opacity:1;fill-rule:nonzero;stroke:none" />
<path
 d="M 12,6 C 8.676,6 6,8.676 6,12 l 0,72 c 0,3.324 2.676,6 6,6 l 72,0 c 3.324,0 6,-2.676 6,-6 L 90,12 C 90,8.676 87.324,6 84,6 L 12,6 z m 2,4 68,0 c 2.216,0 4,1.784 4,4 l 0,68 c 0,2.216 -1.784,4 -4,4 l -68,0 c -2.216,0 -4,-1.784 -4,-4 l 0,-68 c 0,-2.216 1.784,-4 4,-4 z"
 inkscape:connector-curvature="0"
 id="rect3629"
 style="fill:url(#linearGradient3643);fill-opacity:1;fill-rule:nonzero;stroke:none" />
<path
 d="M 12,6 C 8.676,6 6,8.676 6,12 l 0,2 0,68 0,2 c 0,0.334721 0.04135,0.6507 0.09375,0.96875 0.0487,0.295596 0.09704,0.596915 0.1875,0.875 0.00988,0.03038 0.020892,0.0636 0.03125,0.09375 0.098865,0.287771 0.2348802,0.547452 0.375,0.8125 0.1445918,0.273507 0.3156161,0.535615 0.5,0.78125 0.1843839,0.245635 0.3737765,0.473472 0.59375,0.6875 0.439947,0.428056 0.94291,0.814526 1.5,1.09375 0.278545,0.139612 0.5734731,0.246947 0.875,0.34375 -0.2562018,-0.100222 -0.4867109,-0.236272 -0.71875,-0.375 -0.00741,-0.0044 -0.023866,0.0045 -0.03125,0 -0.031933,-0.0193 -0.062293,-0.04251 -0.09375,-0.0625 -0.120395,-0.0767 -0.2310226,-0.163513 -0.34375,-0.25 -0.1061728,-0.0808 -0.2132809,-0.161112 -0.3125,-0.25 C 8.4783201,88.557317 8.3087904,88.373362 8.15625,88.1875 8.0486711,88.057245 7.9378561,87.922215 7.84375,87.78125 7.818661,87.74287 7.805304,87.69538 7.78125,87.65625 7.716487,87.553218 7.6510225,87.451733 7.59375,87.34375 7.4927417,87.149044 7.3880752,86.928049 7.3125,86.71875 7.30454,86.69694 7.288911,86.6782 7.28125,86.65625 7.2494249,86.5643 7.2454455,86.469419 7.21875,86.375 7.1884177,86.268382 7.1483606,86.171969 7.125,86.0625 7.0521214,85.720988 7,85.364295 7,85 L 7,83 7,15 7,13 C 7,10.218152 9.2181517,8 12,8 l 2,0 68,0 2,0 c 2.781848,0 5,2.218152 5,5 l 0,2 0,68 0,2 c 0,0.364295 -0.05212,0.720988 -0.125,1.0625 -0.04415,0.206893 -0.08838,0.397658 -0.15625,0.59375 -0.0077,0.02195 -0.0233,0.04069 -0.03125,0.0625 -0.06274,0.173739 -0.138383,0.367449 -0.21875,0.53125 -0.04158,0.0828 -0.07904,0.169954 -0.125,0.25 -0.0546,0.09721 -0.126774,0.18835 -0.1875,0.28125 -0.09411,0.140965 -0.204921,0.275995 -0.3125,0.40625 -0.143174,0.17445 -0.303141,0.346998 -0.46875,0.5 -0.01117,0.0102 -0.01998,0.02115 -0.03125,0.03125 -0.138386,0.125556 -0.285091,0.234436 -0.4375,0.34375 -0.102571,0.07315 -0.204318,0.153364 -0.3125,0.21875 -0.0074,0.0045 -0.02384,-0.0044 -0.03125,0 -0.232039,0.138728 -0.462548,0.274778 -0.71875,0.375 0.301527,-0.0968 0.596455,-0.204138 0.875,-0.34375 0.55709,-0.279224 1.060053,-0.665694 1.5,-1.09375 0.219973,-0.214028 0.409366,-0.441865 0.59375,-0.6875 0.184384,-0.245635 0.355408,-0.507743 0.5,-0.78125 0.14012,-0.265048 0.276135,-0.524729 0.375,-0.8125 0.01041,-0.03078 0.02133,-0.06274 0.03125,-0.09375 0.09046,-0.278085 0.1388,-0.579404 0.1875,-0.875 C 89.95865,84.6507 90,84.334721 90,84 l 0,-2 0,-68 0,-2 C 90,8.676 87.324,6 84,6 L 12,6 z"
 inkscape:connector-curvature="0"
 id="rect3728"
 style="fill:url(#linearGradient3188);fill-opacity:1;fill-rule:nonzero;stroke:none" />
<path
 d="M 12,90 C 8.676,90 6,87.324 6,84 L 6,82 6,14 6,12 c 0,-0.334721 0.04135,-0.6507 0.09375,-0.96875 0.0487,-0.295596 0.09704,-0.596915 0.1875,-0.875 C 6.29113,10.12587 6.302142,10.09265 6.3125,10.0625 6.411365,9.774729 6.5473802,9.515048 6.6875,9.25 6.8320918,8.976493 7.0031161,8.714385 7.1875,8.46875 7.3718839,8.223115 7.5612765,7.995278 7.78125,7.78125 8.221197,7.353194 8.72416,6.966724 9.28125,6.6875 9.559795,6.547888 9.8547231,6.440553 10.15625,6.34375 9.9000482,6.443972 9.6695391,6.580022 9.4375,6.71875 c -0.00741,0.0044 -0.023866,-0.0045 -0.03125,0 -0.031933,0.0193 -0.062293,0.04251 -0.09375,0.0625 -0.120395,0.0767 -0.2310226,0.163513 -0.34375,0.25 -0.1061728,0.0808 -0.2132809,0.161112 -0.3125,0.25 C 8.4783201,7.442683 8.3087904,7.626638 8.15625,7.8125 8.0486711,7.942755 7.9378561,8.077785 7.84375,8.21875 7.818661,8.25713 7.805304,8.30462 7.78125,8.34375 7.716487,8.446782 7.6510225,8.548267 7.59375,8.65625 7.4927417,8.850956 7.3880752,9.071951 7.3125,9.28125 7.30454,9.30306 7.288911,9.3218 7.28125,9.34375 7.2494249,9.4357 7.2454455,9.530581 7.21875,9.625 7.1884177,9.731618 7.1483606,9.828031 7.125,9.9375 7.0521214,10.279012 7,10.635705 7,11 l 0,2 0,68 0,2 c 0,2.781848 2.2181517,5 5,5 l 2,0 68,0 2,0 c 2.781848,0 5,-2.218152 5,-5 l 0,-2 0,-68 0,-2 C 89,10.635705 88.94788,10.279012 88.875,9.9375 88.83085,9.730607 88.78662,9.539842 88.71875,9.34375 88.71105,9.3218 88.69545,9.30306 88.6875,9.28125 88.62476,9.107511 88.549117,8.913801 88.46875,8.75 88.42717,8.6672 88.38971,8.580046 88.34375,8.5 88.28915,8.40279 88.216976,8.31165 88.15625,8.21875 88.06214,8.077785 87.951329,7.942755 87.84375,7.8125 87.700576,7.63805 87.540609,7.465502 87.375,7.3125 87.36383,7.3023 87.35502,7.29135 87.34375,7.28125 87.205364,7.155694 87.058659,7.046814 86.90625,6.9375 86.803679,6.86435 86.701932,6.784136 86.59375,6.71875 c -0.0074,-0.0045 -0.02384,0.0044 -0.03125,0 -0.232039,-0.138728 -0.462548,-0.274778 -0.71875,-0.375 0.301527,0.0968 0.596455,0.204138 0.875,0.34375 0.55709,0.279224 1.060053,0.665694 1.5,1.09375 0.219973,0.214028 0.409366,0.441865 0.59375,0.6875 0.184384,0.245635 0.355408,0.507743 0.5,0.78125 0.14012,0.265048 0.276135,0.524729 0.375,0.8125 0.01041,0.03078 0.02133,0.06274 0.03125,0.09375 0.09046,0.278085 0.1388,0.579404 0.1875,0.875 C 89.95865,11.3493 90,11.665279 90,12 l 0,2 0,68 0,2 c 0,3.324 -2.676,6 -6,6 l -72,0 z"
 inkscape:connector-curvature="0"
 id="path3615"
 style="opacity:0.6;fill:url(#radialGradient3619);fill-opacity:1;fill-rule:nonzero;stroke:none" />
<rect
 width="84"
 height="84"
 rx="6"
 ry="6"
 x="6"
 y="106"
 id="rect2841"
 style="fill:url(#linearGradient2843);fill-opacity:1;fill-rule:nonzero;stroke:none" />
<rect
 width="76"
 height="76"
 rx="4"
 ry="4"
 x="10"
 y="110"
 id="rect3634"
 style="fill:#ff0000;fill-opacity:1;fill-rule:nonzero;stroke:none" />
<path
 d="m 14,9 c -2.752703,0 -5,2.247297 -5,5 l 0,68 c 0,2.752703 2.247297,5 5,5 l 68,0 c 2.752703,0 5,-2.247297 5,-5 L 87,14 C 87,11.247297 84.752703,9 82,9 L 14,9 z m 0,2 68,0 c 1.679297,0 3,1.320703 3,3 l 0,68 c 0,1.679297 -1.320703,3 -3,3 l -68,0 c -1.679297,0 -3,-1.320703 -3,-3 l 0,-68 c 0,-1.679297 1.320703,-3 3,-3 z"
 inkscape:connector-curvature="0"
 transform="translate(-110,0)"
 clip-path="url(#clipPath3649)"
 id="rect3647"
 style="font-size:medium;font-style:normal;font-variant:normal;font-weight:normal;font-stretch:normal;text-indent:0;text-align:start;text-decoration:none;line-height:normal;letter-spacing:normal;word-spacing:normal;text-transform:none;direction:ltr;block-progression:tb;writing-mode:lr-tb;text-anchor:start;color:#000000;fill:#000000;fill-opacity:1;stroke:none;stroke-width:2;marker:none;visibility:visible;display:inline;overflow:visible;filter:url(#filter3657);enable-background:accumulate;font-family:Abandoned Bitplane;-inkscape-font-specification:Abandoned Bitplane" />
<path
 d="m 14.089286,10 c -2.216,0 -4,1.784 -4,4 l 0,68 c 0,2.216 1.784,4 4,4 l 68,0 c 2.216,0 4,-1.784 4,-4 l 0,-68 c 0,-2.216 -1.784,-4 -4,-4 l -68,0 z m 0,2 68,0 c 1.140301,0 2,0.859699 2,2 l 0,68 c 0,1.140301 -0.859699,2 -2,2 l -68,0 c -1.140301,0 -2,-0.859699 -2,-2 l 0,-68 c 0,-1.140301 0.859699,-2 2,-2 z"
 inkscape:connector-curvature="0"
 id="path3709"
 style="opacity:0.16000001;fill:#000000;fill-opacity:1;fill-rule:nonzero;stroke:none" />
<path
 d="m 14,10 c -2.216,0 -4,1.784 -4,4 l 0,68 c 0,2.216 1.784,4 4,4 l 68,0 c 2.216,0 4,-1.784 4,-4 l 0,-68 c 0,-2.216 -1.784,-4 -4,-4 l -68,0 z m 0,1 68,0 c 1.673848,0 3,1.326152 3,3 l 0,68 c 0,1.673848 -1.326152,3 -3,3 l -68,0 c -1.673848,0 -3,-1.326152 -3,-3 l 0,-68 c 0,-1.673848 1.326152,-3 3,-3 z"
 inkscape:connector-curvature="0"
 id="path3707"
 style="opacity:0.36000001;fill:#000000;fill-opacity:1;fill-rule:nonzero;stroke:none" />
</g>
<g
 id="layer5"
 style="display:none">
<rect
 width="66"
 height="66"
 rx="12"
 ry="12"
 x="15"
 y="15"
 clip-path="url(#clipPath3613)"
 id="rect3171"
 style="opacity:0.1;fill:url(#linearGradient3613);fill-opacity:1;fill-rule:nonzero;stroke:#ffffff;stroke-width:0.5;stroke-linecap:round;stroke-linejoin:miter;stroke-miterlimit:4;stroke-opacity:1;stroke-dasharray:none;stroke-dashoffset:0;filter:url(#filter3794)" />
</g>
<rect
 style="color:#000000;fill:url(#linearGradient3088);fill-opacity:1;fill-rule:nonzero;stroke:none;stroke-width:2;marker:none;visibility:visible;display:inline;overflow:visible;enable-background:accumulate"
 id="rect3897"
 transform="matrix(0,1,1,0,0,0)"
 y="104"
 x="0"
 height="16"
 width="16" />
<text
 sodipodi:linespacing="125%"
 style="font-size:4px;font-style:normal;font-variant:normal;font-weight:normal;font-stretch:normal;text-align:start;line-height:125%;letter-spacing:0px;word-spacing:0px;writing-mode:lr-tb;text-anchor:start;fill:#000000;fill-opacity:1;stroke:none;font-family:Liberation Sans;-inkscape-font-specification:Liberation Sans"
 xml:space="preserve"
 id="text3907"
 y="48"
 x="104"><tspan
 id="tspan3909"
 y="48"
 x="104">Shadow opacity : 30, 15, 10, (8)</tspan></text>
<rect
 style="color:#000000;fill:url(#linearGradient3083);fill-opacity:1;fill-rule:nonzero;stroke:none;stroke-width:2;marker:none;visibility:visible;display:inline;overflow:visible;enable-background:accumulate"
 id="rect3911"
 transform="matrix(0,-1,1,0,0,0)"
 y="104"
 x="-40"
 height="16"
 width="16" />
<text
 sodipodi:linespacing="125%"
 style="font-size:4px;font-style:normal;font-variant:normal;font-weight:normal;font-stretch:normal;text-align:start;line-height:125%;letter-spacing:0px;word-spacing:0px;writing-mode:lr-tb;text-anchor:start;fill:#000000;fill-opacity:1;stroke:none;font-family:Liberation Sans;-inkscape-font-specification:Liberation Sans"
 xml:space="preserve"
 id="text3951"
 y="32"
 x="124"><tspan
 id="tspan3953"
 y="32"
 x="124">Bevel opacity : 30 / 10</tspan></text>
<text
 sodipodi:linespacing="125%"
 style="font-size:4px;font-style:normal;font-variant:normal;font-weight:normal;font-stretch:normal;text-align:start;line-height:125%;letter-spacing:0px;word-spacing:0px;writing-mode:lr-tb;text-anchor:start;fill:#000000;fill-opacity:1;stroke:none;font-family:Liberation Sans;-inkscape-font-specification:Liberation Sans"
 xml:space="preserve"
 id="text3955"
 y="8"
 x="124"><tspan
 id="tspan3957"
 y="8"
 x="124">Bevel opacity : 75 / 15</tspan></text>
<g
 id="g3127"
 transform="matrix(0.5625,0,0,0.5625,14.391975,24.131945)"
 inkscape:export-filename="D:\Desktop\g3090.png"
 inkscape:export-xdpi="23.882807"
 inkscape:export-ydpi="23.882807">
<path
 inkscape:export-ydpi="20.666065"
 inkscape:export-xdpi="20.666065"
 inkscape:export-filename="D:\Desktop\g3090.png"
 d="m 32.444444,9.7777778 c -11.568212,0 -21,9.4317852 -21,21.0000002 0,11.568214 9.431788,21 21,21 11.568212,0 21.000002,-9.431782 21,-21 0,-11.568215 -9.431788,-21.0000002 -21,-21.0000002 z m 7.40625,13.5468752 2.71875,2.929687 -12.679687,14.414063 -7.5,-7.429688 2.765625,-2.929687 3.773437,3.398437 c 0.0013,0.0012 0.04556,0.04577 0.04687,0.04687 0.0013,0.0011 0.06895,0.04584 0.07031,0.04687 0.0014,10e-4 0.04546,0.04591 0.04687,0.04687 0.0014,9.75e-4 0.06885,0.02255 0.07031,0.02344 0.0014,9e-4 0.0688,0.04606 0.07031,0.04687 0.0015,8.25e-4 0.06877,0.02269 0.07031,0.02344 0.0016,7.39e-4 0.06873,0.04621 0.07031,0.04687 0.0016,6.6e-4 0.0687,0.02286 0.07031,0.02344 0.0016,5.78e-4 0.06868,0.02294 0.07031,0.02344 0.0016,4.96e-4 0.06865,0.02303 0.07031,0.02344 0.0016,4.12e-4 0.06863,-3.28e-4 0.07031,0 0.0016,3.28e-4 0.06862,0.0232 0.07031,0.02344 0.0017,2.42e-4 0.06861,-1.55e-4 0.07031,0 0.0017,1.56e-4 0.09204,0.02337 0.09375,0.02344 0.0017,6.9e-5 0.0686,1.8e-5 0.07031,0 0.0017,-1.8e-5 0.0686,-0.02333 0.07031,-0.02344 0.0017,-1.04e-4 0.06861,1.92e-4 0.07031,0 0.0017,-1.91e-4 0.06862,2.78e-4 0.07031,0 0.0017,-2.77e-4 0.06864,-0.02308 0.07031,-0.02344 0.0016,-3.62e-4 0.0921,-0.02299 0.09375,-0.02344 0.0016,-4.47e-4 0.06869,-0.02291 0.07031,-0.02344 0.0016,-5.3e-4 0.06872,-0.02282 0.07031,-0.02344 0.0016,-6.12e-4 0.06874,-0.02275 0.07031,-0.02344 0.0016,-6.92e-4 0.06878,-0.02267 0.07031,-0.02344 0.0015,-7.49e-4 0.04539,-0.04603 0.04687,-0.04687 0.0015,-8.25e-4 0.06887,-0.02251 0.07031,-0.02344 0.0014,-9e-4 0.06892,-0.04588 0.07031,-0.04687 0.0014,-9.75e-4 0.04553,-0.04581 0.04687,-0.04687 0.0014,-0.001 0.06903,-0.04574 0.07031,-0.04687 0.0013,-0.0011 0.04565,-0.04568 0.04687,-0.04687 0.0012,-0.0012 0.04571,-0.06906 0.04687,-0.07031 9e-4,-9.74e-4 0.03333,-0.03151 0.04687,-0.04687 l 8.789155,-10.242192 z"
 id="path3923"
 style="opacity:0.1;fill:#000000;fill-opacity:1;stroke:none;display:inline"
 inkscape:connector-curvature="0" />
<path
 inkscape:export-ydpi="20.666065"
 inkscape:export-xdpi="20.666065"
 inkscape:export-filename="D:\Desktop\g3090.png"
 d="m 32.444444,10.480903 c -11.193073,0 -20.296875,9.103799 -20.296875,20.296875 0,11.193076 9.103802,20.296875 20.296875,20.296875 11.193074,0 20.296877,-9.103796 20.296875,-20.296875 0,-11.193076 -9.103801,-20.296875 -20.296875,-20.296875 z m 7.40625,11.8125 3.65625,3.9375 -13.59375,15.445312 -8.484375,-8.414062 3.679688,-3.9375 4.289062,3.867187 a 0.79309935,0.79309935 0 0 0 1.148438,-0.07031 l 9.304687,-10.828127 z"
 id="path3919"
 style="opacity:0.15;fill:#000000;fill-opacity:1;stroke:none;display:inline"
 inkscape:connector-curvature="0" />
<path
 inkscape:export-ydpi="20.666065"
 inkscape:export-xdpi="20.666065"
 inkscape:export-filename="D:\Desktop\g3090.png"
 sodipodi:nodetypes="sssss"
 d="m 32.444444,11.277778 c -10.764,0 -19.5,8.735998 -19.5,19.5 0,10.764002 8.736,19.5 19.5,19.5 10.764,0 19.500002,-8.735995 19.5,-19.5 0,-10.764002 -8.736,-19.5 -19.5,-19.5 z"
 inkscape:connector-curvature="0"
 id="path3913"
 style="opacity:0.3;fill:#000000;fill-opacity:1;stroke:none;display:inline" />
<path
 inkscape:export-ydpi="20.666065"
 inkscape:export-xdpi="20.666065"
 inkscape:export-filename="D:\Desktop\g3090.png"
 sodipodi:nodetypes="sssss"
 d="m 32.444444,10.527778 c -10.764,0 -19.5,8.735998 -19.5,19.5 0,10.764002 8.736,19.5 19.5,19.5 10.764,0 19.500002,-8.735995 19.5,-19.5 0,-10.764002 -8.736,-19.5 -19.5,-19.5 z"
 inkscape:connector-curvature="0"
 id="path2505"
 style="fill:url(#linearGradient3135);fill-opacity:1;stroke:none;display:inline" />
<path
 inkscape:export-ydpi="20.666065"
 inkscape:export-xdpi="20.666065"
 inkscape:export-filename="D:\Desktop\g3090.png"
 sodipodi:nodetypes="sscscss"
 d="m 32.444444,10.527778 c -10.764,0 -19.5,8.735998 -19.5,19.5 0,0.125095 -0.0023,0.250463 0,0.375 0.199798,-10.591422 8.861096,-19.125 19.5,-19.125 10.638905,0 19.300202,8.533578 19.5,19.125 0.0023,-0.124537 0,-0.249905 0,-0.375 0,-10.764002 -8.736,-19.5 -19.5,-19.5 z"
 inkscape:connector-curvature="0"
 id="path3895"
 style="opacity:0.75;fill:#ffffff;fill-opacity:1;stroke:none;display:inline" />
<path
 inkscape:export-ydpi="20.666065"
 inkscape:export-xdpi="20.666065"
 inkscape:export-filename="D:\Desktop\g3090.png"
 sodipodi:nodetypes="cssscsc"
 d="m 12.944444,29.652778 c -0.0023,0.124537 0,0.249904 0,0.375 0,10.764002 8.736,19.5 19.5,19.5 10.764,0 19.500002,-8.735995 19.5,-19.5 0,-0.125096 0.0023,-0.250463 0,-0.375 -0.199795,10.591425 -8.861095,19.125 -19.5,19.125 -10.638904,0 -19.300202,-8.533578 -19.5,-19.125 z"
 inkscape:connector-curvature="0"
 id="path3904"
 style="opacity:0.15;fill:#000000;fill-opacity:1;stroke:none;display:inline" />
</g>
<g
 transform="translate(7.123891,6.9302849)"
 id="g3090"
 inkscape:export-filename="D:\Desktop\g3090.png"
 inkscape:export-xdpi="23.882807"
 inkscape:export-ydpi="23.882807">
<path
 sodipodi:nodetypes="cccccccccccccc"
 d="M 63,21.5625 C 60.796646,21.5086 59.764689,23.655582 58.265192,24.893501 48.289443,34.89984 38.246465,44.890021 28.3125,54.90625 26.184107,60.032383 24.142079,65.312783 22.0625,70.5 c -0.540492,1.666449 1.525175,3.176795 2.975046,2.229092 C 30.077086,70.676609 35.198298,68.762894 40.1875,66.625 51.056671,55.765822 61.961219,44.872547 72.84375,34 73.952657,32.382951 73.416028,30.116482 71.858871,29.015121 69.496515,26.718391 67.236926,24.26388 64.8125,22.0625 64.262096,21.772803 63.64186,21.547528 63,21.5625 z M 33.09375,60.5 c 0.0484,1.193829 2.393007,1.423547 0.447905,1.878645 -0.873708,0.394541 -2.140448,1.182114 -1.16301,-0.27449 C 32.617013,61.569437 32.855382,61.034718 33.09375,60.5 z"
 inkscape:connector-curvature="0"
 id="path3905"
 style="opacity:0.1;fill:#000000;fill-opacity:1;stroke:none;display:inline" />
<path
 sodipodi:nodetypes="sccccccccccccsccccccscccccccc"
 d="m 63,22.5625 c -0.397087,0 -0.811804,0.08019 -1.1875,0.28125 -0.021,0.01124 -0.04175,0.01928 -0.0625,0.03125 -0.103463,0.04597 -0.199019,0.109678 -0.28125,0.1875 l -32.1875,32.21875 c -0.0954,0.09801 -0.170372,0.215817 -0.21875,0.34375 l -6,15 c -0.311926,0.729047 0.583453,1.624426 1.3125,1.3125 l 15,-6 c 0.127933,-0.04838 0.245742,-0.123347 0.34375,-0.21875 L 71.9375,33.53125 c 0.04855,-0.05753 0.09057,-0.12056 0.125,-0.1875 0.114454,-0.176958 0.12734,-0.206173 0.0625,-0.09375 0.226067,-0.39199 0.3125,-0.830715 0.3125,-1.25 0,-0.419285 -0.08643,-0.85801 -0.3125,-1.25 0.06484,0.112423 0.05195,0.08321 -0.0625,-0.09375 -0.03443,-0.06694 -0.07645,-0.129972 -0.125,-0.1875 L 64.53125,23.0625 C 64.47372,23.01395 64.41069,22.97193 64.34375,22.9375 64.166792,22.823046 64.137577,22.81016 64.25,22.875 63.85801,22.648933 63.419285,22.5625 63,22.5625 z M 33.9375,58.28125 34,60.03125 c 0.01595,0.51312 0.486632,0.969094 1,0.96875 l 1.625,0 -0.4375,1.28125 -6.21875,2.75 2.78125,-6.25 z"
 id="path3901"
 style="opacity:0.15;fill:#000000;fill-opacity:1;stroke:none;display:inline"
 inkscape:connector-curvature="0" />
<path
 sodipodi:nodetypes="scccccccsccccsccccccc"
 d="m 63,23.5625 c -0.273736,0 -0.528539,0.05978 -0.75,0.1875 L 62.1875,23.78125 30,56 24,71 39,65 71.21875,32.8125 c 0.01258,-0.01945 0.01964,-0.04237 0.03125,-0.0625 0.12772,-0.221461 0.1875,-0.476264 0.1875,-0.75 0,-0.273736 -0.05978,-0.528539 -0.1875,-0.75 -0.01161,-0.02013 -0.01867,-0.04305 -0.03125,-0.0625 L 63.8125,23.78125 C 63.79305,23.76867 63.77013,23.76161 63.75,23.75 63.528539,23.62228 63.273736,23.5625 63,23.5625 z M 34.875,56.8125 35,60 l 3,0 -1,3 -9,4 4,-9 z"
 inkscape:connector-curvature="0"
 id="path3895-0"
 style="opacity:0.3;fill:#000000;fill-opacity:1;stroke:none;display:inline" />
<path
 sodipodi:nodetypes="scccccccsccccsccccccc"
 d="m 63,22.5625 c -0.273736,0 -0.528539,0.05978 -0.75,0.1875 L 62.1875,22.78125 30,55 24,70 39,64 71.21875,31.8125 c 0.01258,-0.01945 0.01964,-0.04237 0.03125,-0.0625 0.12772,-0.221461 0.1875,-0.476264 0.1875,-0.75 0,-0.273736 -0.05978,-0.528539 -0.1875,-0.75 -0.01161,-0.02013 -0.01867,-0.04305 -0.03125,-0.0625 L 63.8125,22.78125 C 63.79305,22.76867 63.77013,22.76161 63.75,22.75 63.528539,22.62228 63.273736,22.5625 63,22.5625 z M 34.875,55.8125 35,59 l 3,0 -1,3 -9,4 4,-9 z"
 inkscape:connector-curvature="0"
 id="path3108"
 style="fill:url(#linearGradient3073);fill-opacity:1;stroke:none;display:inline" />
<path
 d="m 63,22.5625 c -0.273736,0 -0.528539,0.05978 -0.75,0.1875 L 62.1875,22.78125 30,55 24,70 24.46875,69.8125 30,56 62.1875,23.78125 62.25,23.75 c 0.221461,-0.12772 0.476264,-0.1875 0.75,-0.1875 0.273736,0 0.528539,0.05978 0.75,0.1875 0.02013,0.01161 0.04305,0.01867 0.0625,0.03125 l 7.40625,7.40625 c 0.01258,0.01945 0.01964,0.04237 0.03125,0.0625 0.04724,0.08191 0.09594,0.159697 0.125,0.25 0.04952,-0.15385 0.0625,-0.327509 0.0625,-0.5 0,-0.273736 -0.05978,-0.528539 -0.1875,-0.75 -0.01161,-0.02013 -0.01867,-0.04305 -0.03125,-0.0625 L 63.8125,22.78125 C 63.79305,22.76867 63.77013,22.76161 63.75,22.75 63.528539,22.62228 63.273736,22.5625 63,22.5625 z M 64,58 64,59 73.375,66.5 74,66 64,58 z M 37.65625,60 37,62 28.5625,65.75 28,67 l 9,-4 1,-3 -0.34375,0 z M 52,62 l 0,1 12,0 0,-1 -12,0 z"
 inkscape:connector-curvature="0"
 id="path3109"
 style="opacity:0.75;fill:#ffffff;fill-opacity:1;stroke:none;display:inline" />
<path
 sodipodi:nodetypes="cccccccccscccccccccccc"
 d="m 71.375,30.5 c -0.02906,0.0903 -0.07776,0.16809 -0.125,0.25 -0.01161,0.02013 -0.01867,0.04305 -0.03125,0.0625 L 39,63 24.46875,68.8125 24,70 39,64 71.21875,31.8125 c 0.01258,-0.01945 0.01964,-0.04237 0.03125,-0.0625 0.12772,-0.221461 0.1875,-0.476264 0.1875,-0.75 0,-0.172491 -0.01298,-0.34615 -0.0625,-0.5 z M 34.875,54.8125 32,56 28,65 28.5625,64.75 32,57 34.875,55.8125 35,59 37.65625,59 38,58 35,58 z"
 inkscape:connector-curvature="0"
 id="path3886"
 style="opacity:0.15;fill:#000000;fill-opacity:1;stroke:none;display:inline" />
</g>
</svg>
