<?xml version="1.0" encoding="UTF-8" standalone="no"?>
<!-- Created with Inkscape (http://www.inkscape.org/) -->

<svg
   xmlns:svg="http://www.w3.org/2000/svg"
   xmlns="http://www.w3.org/2000/svg"
   xmlns:xlink="http://www.w3.org/1999/xlink"
   version="1.0"
   width="60"
   height="60"
   id="svg1">
  <defs
     id="defs3">
    <linearGradient
       id="linearGradient1160">
      <stop
         id="stop1161"
         style="stop-color:#000000;stop-opacity:1"
         offset="0" />
      <stop
         id="stop1162"
         style="stop-color:#ffffff;stop-opacity:1"
         offset="1" />
    </linearGradient>
    <linearGradient
       id="linearGradient1163"
       xlink:href="#linearGradient1160" />
  </defs>
  <path
     d="M 30.760907,34.156561 C 43.835771,53.343901 52.812255,58.284572 55.623106,55.802463 58.25401,52.960461 53.169279,44.840036 32.295559,32.423772 l -1.534652,1.732789 z"
     id="path1187"
     style="font-size:12px;fill:#b3b3b3;fill-opacity:1;fill-rule:evenodd;stroke:#333333;stroke-width:3.125;stroke-linecap:round;stroke-linejoin:round;stroke-opacity:1;stroke-dasharray:none" />
  <path
     d="m 47.865601,28.05961 a 20.603802,20.603802 0 1 1 -41.2076039,0 20.603802,20.603802 0 1 1 41.2076039,0 z"
     transform="translate(-2.879134,-2.879134)"
     id="path1174"
     style="font-size:12px;fill:#7f7f7f;fill-opacity:1;fill-rule:evenodd;stroke:#333333;stroke-width:3.125;stroke-opacity:1;stroke-dasharray:none" />
  <path
     d="m 47.865601,28.05961 a 20.603802,20.603802 0 1 1 -41.2076039,0 20.603802,20.603802 0 1 1 41.2076039,0 z"
     transform="matrix(0.787215,0,0,0.787215,2.794546,3.218789)"
     style="font-size:12px;fill:#cccccc;fill-opacity:1;fill-rule:evenodd;stroke:#333333;stroke-width:3.70790005;stroke-opacity:1;stroke-dasharray:none" />
  <path
     d="m 16.308244,16.846493 0,-6.082031 -0.708985,0 c -0.269531,0 -0.472656,-0.08008 -0.609375,-0.240235 -0.136718,-0.160156 -0.205078,-0.355469 -0.205078,-0.5859374 0,-0.2265625 0.07227,-0.4238281 0.216797,-0.5917968 0.148438,-0.1679688 0.347656,-0.2519532 0.597656,-0.2519532 l 1.705079,0 c 0.167968,0 0.3125,0.039063 0.433593,0.1171875 0.121094,0.074219 0.212891,0.1757813 0.275391,0.3046875 0.0625,0.125 0.09375,0.2734375 0.09375,0.4453125 l 0,6.8847659 c 0,0.304687 -0.08203,0.539062 -0.246094,0.703125 -0.164062,0.164062 -0.380859,0.246094 -0.65039,0.246094 -0.265625,0 -0.482422,-0.08399 -0.650391,-0.251954 -0.167969,-0.167968 -0.251953,-0.40039 -0.251953,-0.697265 z M 11.943009,13.03204 c 0,-0.257813 0.08984,-0.480469 0.269532,-0.667969 0.179687,-0.1875 0.40039,-0.28125 0.662109,-0.28125 0.261719,0 0.482422,0.09375 0.662109,0.28125 0.183594,0.183594 0.275391,0.40625 0.275391,0.667969 0,0.257812 -0.0918,0.480468 -0.275391,0.667968 -0.183593,0.1875 -0.404296,0.28125 -0.662109,0.28125 -0.257812,0 -0.478516,-0.09375 -0.662109,-0.28125 -0.179688,-0.1875 -0.269532,-0.410156 -0.269532,-0.667968 z m 0,3.890625 c 0,-0.253907 0.08984,-0.472657 0.269532,-0.65625 0.183593,-0.1875 0.404297,-0.28125 0.662109,-0.28125 0.257813,0 0.478516,0.0918 0.662109,0.27539 0.183594,0.183594 0.275391,0.404297 0.275391,0.66211 0,0.257812 -0.0918,0.480468 -0.275391,0.667968 -0.183593,0.1875 -0.404296,0.28125 -0.662109,0.28125 -0.257812,0 -0.478516,-0.09375 -0.662109,-0.28125 -0.179688,-0.1875 -0.269532,-0.410156 -0.269532,-0.667968 z m -3.2929684,-0.07617 0,-6.082031 -0.7089843,0 c -0.2695313,0 -0.4726563,-0.08008 -0.609375,-0.240235 C 7.1949625,10.364071 7.1266031,10.168758 7.1266031,9.9382896 7.1266031,9.7117271 7.1988688,9.5144615 7.3434,9.3464928 7.4918375,9.178524 7.6910563,9.0945396 7.9410563,9.0945396 l 1.7050781,0 c 0.1679687,0 0.3125,0.039063 0.4335936,0.1171875 0.121094,0.074219 0.212891,0.1757813 0.275391,0.3046875 0.0625,0.125 0.09375,0.2734375 0.09375,0.4453125 l 0,6.8847659 c 0,0.304687 -0.08203,0.539062 -0.246094,0.703125 -0.164062,0.164062 -0.3808594,0.246094 -0.6503906,0.246094 -0.265625,0 -0.4824219,-0.08399 -0.6503906,-0.251954 C 8.734025,17.37579 8.6500406,17.143368 8.6500406,16.846493 z"
     transform="scale(1.898784,1.898784)"
     id="path838"
     style="font-size:12px;fill:#333333;stroke-width:0.98747402;font-family:VAG Rounded Black SSi" />
</svg>
