<?xml version="1.0" encoding="UTF-8" standalone="no"?>
<!-- Created with Inkscape (http://www.inkscape.org/) -->

<svg
   xmlns:dc="http://purl.org/dc/elements/1.1/"
   xmlns:cc="http://creativecommons.org/ns#"
   xmlns:rdf="http://www.w3.org/1999/02/22-rdf-syntax-ns#"
   xmlns:svg="http://www.w3.org/2000/svg"
   xmlns="http://www.w3.org/2000/svg"
   version="1.1"
   width="36"
   height="36"
   id="svg2">
  <defs
     id="defs4" />
  <metadata
     id="metadata7">
    <rdf:RDF>
      <cc:Work
         rdf:about="">
        <dc:format>image/svg+xml</dc:format>
        <dc:type
           rdf:resource="http://purl.org/dc/dcmitype/StillImage" />
        <dc:title></dc:title>
      </cc:Work>
    </rdf:RDF>
  </metadata>
  <g
     transform="translate(-128,-463.86218)"
     id="layer1">
    <g
       transform="translate(125.07143,451.71933)"
       id="id2">
      <path
         d="m 30.92857,28.142853 -10,10 -10,-10 c 0,0 7,0 7,0 0,0 0,-14.000003 0,-14.000003 0,0 6,0 6,0 0,0 0,14.000003 0,14.000003 0,0 7,0 7,0 z"
         id="polygon9"
         style="fill:#b3b3b3;stroke:#333333;stroke-width:2" />
    </g>
    <path
       d="m 156,491.86218 0,6 -20,0 c 0,0 0,-6 0,-6 0,0 20,0 20,0 z"
       id="polygon9-7"
       style="fill:#ed0202;fill-opacity:1;stroke:#4e1818;stroke-width:2;stroke-opacity:1" />
  </g>
</svg>
