<?xml version="1.0" encoding="UTF-8" standalone="no"?>
<!-- Created with Inkscape (http://www.inkscape.org/) -->

<svg
   xmlns:latexdraw="http://latexdraw.sourceforge.net/namespaces/latexdraw"
   xmlns:dc="http://purl.org/dc/elements/1.1/"
   xmlns:cc="http://creativecommons.org/ns#"
   xmlns:rdf="http://www.w3.org/1999/02/22-rdf-syntax-ns#"
   xmlns:svg="http://www.w3.org/2000/svg"
   xmlns="http://www.w3.org/2000/svg"
   xmlns:sodipodi="http://sodipodi.sourceforge.net/DTD/sodipodi-0.dtd"
   xmlns:inkscape="http://www.inkscape.org/namespaces/inkscape"
   width="24.049999"
   height="24.047569"
   id="svg2"
   version="1.1"
   inkscape:version="0.47+devel r"
   sodipodi:docname="FullScreen.svg">
  <defs
     id="defs4">
    <inkscape:perspective
       sodipodi:type="inkscape:persp3d"
       inkscape:vp_x="0 : 0.5 : 1"
       inkscape:vp_y="0 : 1000 : 0"
       inkscape:vp_z="1 : 0.5 : 1"
       inkscape:persp3d-origin="0.5 : 0.33333333 : 1"
       id="perspective15" />
  </defs>
  <sodipodi:namedview
     id="base"
     pagecolor="#ffffff"
     bordercolor="#666666"
     borderopacity="1.0"
     inkscape:pageopacity="0.0"
     inkscape:pageshadow="2"
     inkscape:zoom="14.56"
     inkscape:cx="1.2037644"
     inkscape:cy="-1.4986904"
     inkscape:document-units="px"
     inkscape:current-layer="layer1"
     showgrid="true"
     inkscape:window-width="1372"
     inkscape:window-height="821"
     inkscape:window-x="41"
     inkscape:window-y="125"
     inkscape:window-maximized="0">
    <inkscape:grid
       type="xygrid"
       id="grid2995"
       empspacing="5"
       visible="true"
       enabled="true"
       snapvisiblegridlinesonly="true" />
  </sodipodi:namedview>
  <metadata
     id="metadata7">
    <rdf:RDF>
      <cc:Work
         rdf:about="">
        <dc:format>image/svg+xml</dc:format>
        <dc:type
           rdf:resource="http://purl.org/dc/dcmitype/StillImage" />
        <dc:title></dc:title>
      </cc:Work>
    </rdf:RDF>
  </metadata>
  <g
     inkscape:label="Ebene 1"
     inkscape:groupmode="layer"
     id="layer1"
     transform="translate(-191.47622,-148.8384)">
    <g
       transform="matrix(0.37037033,-0.37037033,0.37037033,0.37037033,-20.504489,45.005833)"
       id="layer1-5"
       inkscape:label="Ebene 1">
      <g
         transform="translate(125.07143,451.71933)"
         id="id2"
         latexdraw:type="polygon">
        <path
           inkscape:connector-curvature="0"
           sodipodi:nodetypes="cccccccc"
           id="polygon9"
           d="m 30.92857,28.142853 -10,10 -10,-10 c 0,0 7,0 7,0 0,0 0,-14.000003 0,-14.000003 0,0 6,0 6,0 0,0 0,14.000003 0,14.000003 0,0 7,0 7,0 z"
           style="fill:#b3b3b3;stroke:#333333;stroke-width:2" />
      </g>
    </g>
    <g
       transform="matrix(-0.37037033,-0.37037033,-0.37037033,0.37037033,427.50449,45.005832)"
       id="layer1-5-1"
       inkscape:label="Ebene 1">
      <g
         transform="translate(125.07143,451.71933)"
         id="id2-9"
         latexdraw:type="polygon">
        <path
           inkscape:connector-curvature="0"
           sodipodi:nodetypes="cccccccc"
           id="polygon9-6"
           d="m 30.92857,28.142853 -10,10 -10,-10 c 0,0 7,0 7,0 0,0 0,-14.000003 0,-14.000003 0,0 6,0 6,0 0,0 0,14.000003 0,14.000003 0,0 7,0 7,0 z"
           style="fill:#b3b3b3;stroke:#333333;stroke-width:2" />
      </g>
    </g>
    <g
       transform="matrix(0.37037033,0.37037033,0.37037033,-0.37037033,-20.504487,276.71853)"
       id="layer1-5-5"
       inkscape:label="Ebene 1">
      <g
         transform="translate(125.07143,451.71933)"
         id="id2-1"
         latexdraw:type="polygon">
        <path
           inkscape:connector-curvature="0"
           sodipodi:nodetypes="cccccccc"
           id="polygon9-7"
           d="m 30.92857,28.142853 -10,10 -10,-10 c 0,0 7,0 7,0 0,0 0,-14.000003 0,-14.000003 0,0 6,0 6,0 0,0 0,14.000003 0,14.000003 0,0 7,0 7,0 z"
           style="fill:#b3b3b3;stroke:#333333;stroke-width:2" />
      </g>
    </g>
    <g
       transform="matrix(-0.37037033,0.37037033,-0.37037033,-0.37037033,427.50449,276.71853)"
       id="layer1-5-9"
       inkscape:label="Ebene 1">
      <g
         transform="translate(125.07143,451.71933)"
         id="id2-2"
         latexdraw:type="polygon">
        <path
           inkscape:connector-curvature="0"
           sodipodi:nodetypes="cccccccc"
           id="polygon9-8"
           d="m 30.92857,28.142853 -10,10 -10,-10 c 0,0 7,0 7,0 0,0 0,-14.000003 0,-14.000003 0,0 6,0 6,0 0,0 0,14.000003 0,14.000003 0,0 7,0 7,0 z"
           style="fill:#b3b3b3;stroke:#333333;stroke-width:2" />
      </g>
    </g>
  </g>
</svg>
