<?xml version="1.0" encoding="UTF-8" standalone="no"?>
<!-- Created with Inkscape (http://www.inkscape.org/) -->

<svg
   xmlns:dc="http://purl.org/dc/elements/1.1/"
   xmlns:cc="http://creativecommons.org/ns#"
   xmlns:rdf="http://www.w3.org/1999/02/22-rdf-syntax-ns#"
   xmlns:svg="http://www.w3.org/2000/svg"
   xmlns="http://www.w3.org/2000/svg"
   xmlns:sodipodi="http://sodipodi.sourceforge.net/DTD/sodipodi-0.dtd"
   xmlns:inkscape="http://www.inkscape.org/namespaces/inkscape"
   width="38.945351"
   height="44.714851"
   id="svg2"
   version="1.1"
   inkscape:version="0.47+devel r"
   sodipodi:docname="style.svg">
  <defs
     id="defs4" />
  <sodipodi:namedview
     id="base"
     pagecolor="#ffffff"
     bordercolor="#666666"
     borderopacity="1.0"
     inkscape:pageopacity="0.0"
     inkscape:pageshadow="2"
     inkscape:zoom="7.59"
     inkscape:cx="44.312565"
     inkscape:cy="19.738682"
     inkscape:document-units="px"
     inkscape:current-layer="layer1"
     showgrid="false"
     inkscape:window-width="1372"
     inkscape:window-height="821"
     inkscape:window-x="4"
     inkscape:window-y="230"
     inkscape:window-maximized="0"
     showborder="false" />
  <metadata
     id="metadata7">
    <rdf:RDF>
      <cc:Work
         rdf:about="">
        <dc:format>image/svg+xml</dc:format>
        <dc:type
           rdf:resource="http://purl.org/dc/dcmitype/StillImage" />
        <dc:title></dc:title>
      </cc:Work>
    </rdf:RDF>
  </metadata>
  <g
     inkscape:label="Ebene 1"
     inkscape:groupmode="layer"
     id="layer1"
     transform="translate(-217.01114,-306.5216)">
    <g
       id="g4429">
      <g
         id="text2982-3"
         style="font-size:40px;font-style:normal;font-weight:normal;line-height:125%;fill:#686868;fill-opacity:1;stroke:#333333;stroke-width:4;stroke-miterlimit:4;stroke-opacity:1;stroke-dasharray:none;font-family:Bitstream Vera Sans"
         transform="translate(-36.286245,1.3580853)">
        <path
           inkscape:connector-curvature="0"
           id="path2987-4"
           style="font-size:56px;font-variant:normal;font-stretch:normal;text-align:start;line-height:125%;writing-mode:lr-tb;text-anchor:start;fill:#686868;fill-opacity:1;stroke:#333333;stroke-width:4;stroke-miterlimit:4;stroke-opacity:1;stroke-dasharray:none;font-family:cmsy10;-inkscape-font-specification:cmsy10"
           d="m 255.29742,339.70258 c 0,-2.15104 0.82031,-4.07421 2.46094,-5.76954 0.71094,-0.65623 1.53125,-1.21222 2.46094,-1.66796 0.92968,-0.45572 1.82291,-0.68358 2.67969,-0.6836 l 0.35547,0 c 0.25519,0.12762 0.3828,0.27345 0.38281,0.4375 -10e-6,0.20054 -0.0638,0.39194 -0.19141,0.57422 -0.12761,0.16408 -0.25522,0.3008 -0.38281,0.41016 -0.12761,0.10939 -0.32813,0.27345 -0.60156,0.49218 -0.23699,0.18231 -0.50131,0.35549 -0.79297,0.51954 -0.27345,0.14584 -0.46485,0.27345 -0.57422,0.38281 -0.10938,0.0912 -0.22787,0.27345 -0.35547,0.54687 -0.3099,0.76564 -0.46485,1.54949 -0.46484,2.35157 -1e-5,1.47657 0.52864,2.77084 1.58593,3.88281 1.07552,1.09375 2.39713,1.93229 3.96485,2.51562 1.58592,0.58334 3.11717,0.87501 4.59375,0.875 1.89581,1e-5 3.67316,-0.29166 5.33203,-0.875 1.67706,-0.58333 3.04425,-1.48567 4.10156,-2.70703 1.05727,-1.22135 1.58591,-2.78905 1.58594,-4.70312 -3e-5,-1.16666 -0.28258,-2.21483 -0.84766,-3.14453 -0.5469,-0.92968 -1.29429,-1.7591 -2.24218,-2.48829 -0.94794,-0.72915 -1.87763,-1.32159 -2.78907,-1.77734 -0.91148,-0.47394 -1.99611,-0.99347 -3.2539,-1.55859 -2.16929,-1.00259 -3.93752,-2.13279 -5.30469,-3.39063 -1.34897,-1.27602 -2.02345,-2.82549 -2.02344,-4.64844 -10e-6,-2.24215 0.8841,-4.29293 2.65235,-6.15234 1.76821,-1.85934 3.94659,-3.31767 6.53515,-4.375 2.58852,-1.05725 4.92185,-1.5859 7,-1.58594 l 0.32813,0 c 1.25778,4e-5 2.56116,0.17322 3.91015,0.51953 1.36716,0.32817 2.51559,0.89327 3.44532,1.69532 0.92965,0.80212 1.39449,1.85941 1.39453,3.17187 -4e-5,1.56774 -0.39197,2.74352 -1.17578,3.52735 -1.31254,0.9844 -2.47009,1.52216 -3.47266,1.61328 l -0.32813,0 c -0.27346,-0.12758 -0.41018,-0.29164 -0.41015,-0.49219 0.0729,-0.3281 0.12757,-0.56507 0.16406,-0.71094 0.0547,-0.1458 0.10934,-0.36455 0.16406,-0.65625 0.0547,-0.29163 0.082,-0.56507 0.082,-0.82031 -3e-5,-1.64059 -0.82945,-2.80726 -2.48828,-3.5 -1.64065,-0.69267 -3.42711,-1.03903 -5.35937,-1.03906 -2.13284,3e-5 -3.91018,0.55602 -5.33203,1.66797 -1.42189,1.11201 -2.13283,2.66149 -2.13282,4.64843 -1e-5,2.80732 2.18749,5.22268 6.5625,7.2461 1.8229,0.8021 3.43618,1.6133 4.83985,2.43359 1.40362,0.8021 2.59762,1.81382 3.58203,3.03516 1.00257,1.22137 1.50387,2.66147 1.50391,4.32031 -4e-5,2.69793 -1.07556,5.1224 -3.22657,7.27344 -2.15107,2.15104 -4.79429,3.81901 -7.92968,5.0039 -3.13544,1.1849 -6.00653,1.77735 -8.61329,1.77735 l -0.30078,0 c -1.56772,0 -3.22657,-0.32813 -4.97656,-0.98438 -1.75,-0.65625 -3.20834,-1.60416 -4.375,-2.84375 -1.14844,-1.23958 -1.72266,-2.68879 -1.72266,-4.34765" />
      </g>
      <g
         transform="translate(-36.231884,1.317523)"
         id="text2982"
         style="font-size:40px;font-style:normal;font-weight:normal;line-height:125%;fill:#c5c5c5;fill-opacity:1;stroke:none;font-family:Bitstream Vera Sans">
        <path
           inkscape:connector-curvature="0"
           id="path2987"
           style="font-size:56px;font-variant:normal;font-stretch:normal;text-align:start;line-height:125%;writing-mode:lr-tb;text-anchor:start;fill:#c5c5c5;fill-opacity:1;stroke:none;font-family:cmsy10;-inkscape-font-specification:cmsy10"
           d="m 255.29742,339.70258 c 0,-2.15104 0.82031,-4.07421 2.46094,-5.76954 0.71094,-0.65623 1.53125,-1.21222 2.46094,-1.66796 0.92968,-0.45572 1.82291,-0.68358 2.67969,-0.6836 l 0.35547,0 c 0.25519,0.12762 0.3828,0.27345 0.38281,0.4375 -10e-6,0.20054 -0.0638,0.39194 -0.19141,0.57422 -0.12761,0.16408 -0.25522,0.3008 -0.38281,0.41016 -0.12761,0.10939 -0.32813,0.27345 -0.60156,0.49218 -0.23699,0.18231 -0.50131,0.35549 -0.79297,0.51954 -0.27345,0.14584 -0.46485,0.27345 -0.57422,0.38281 -0.10938,0.0912 -0.22787,0.27345 -0.35547,0.54687 -0.3099,0.76564 -0.46485,1.54949 -0.46484,2.35157 -1e-5,1.47657 0.52864,2.77084 1.58593,3.88281 1.07552,1.09375 2.39713,1.93229 3.96485,2.51562 1.58592,0.58334 3.11717,0.87501 4.59375,0.875 1.89581,1e-5 3.67316,-0.29166 5.33203,-0.875 1.67706,-0.58333 3.04425,-1.48567 4.10156,-2.70703 1.05727,-1.22135 1.58591,-2.78905 1.58594,-4.70312 -3e-5,-1.16666 -0.28258,-2.21483 -0.84766,-3.14453 -0.5469,-0.92968 -1.29429,-1.7591 -2.24218,-2.48829 -0.94794,-0.72915 -1.87763,-1.32159 -2.78907,-1.77734 -0.91148,-0.47394 -1.99611,-0.99347 -3.2539,-1.55859 -2.16929,-1.00259 -3.93752,-2.13279 -5.30469,-3.39063 -1.34897,-1.27602 -2.02345,-2.82549 -2.02344,-4.64844 -10e-6,-2.24215 0.8841,-4.29293 2.65235,-6.15234 1.76821,-1.85934 3.94659,-3.31767 6.53515,-4.375 2.58852,-1.05725 4.92185,-1.5859 7,-1.58594 l 0.32813,0 c 1.25778,4e-5 2.56116,0.17322 3.91015,0.51953 1.36716,0.32817 2.51559,0.89327 3.44532,1.69532 0.92965,0.80212 1.39449,1.85941 1.39453,3.17187 -4e-5,1.56774 -0.39197,2.74352 -1.17578,3.52735 -1.31254,0.9844 -2.47009,1.52216 -3.47266,1.61328 l -0.32813,0 c -0.27346,-0.12758 -0.41018,-0.29164 -0.41015,-0.49219 0.0729,-0.3281 0.12757,-0.56507 0.16406,-0.71094 0.0547,-0.1458 0.10934,-0.36455 0.16406,-0.65625 0.0547,-0.29163 0.082,-0.56507 0.082,-0.82031 -3e-5,-1.64059 -0.82945,-2.80726 -2.48828,-3.5 -1.64065,-0.69267 -3.42711,-1.03903 -5.35937,-1.03906 -2.13284,3e-5 -3.91018,0.55602 -5.33203,1.66797 -1.42189,1.11201 -2.13283,2.66149 -2.13282,4.64843 -1e-5,2.80732 2.18749,5.22268 6.5625,7.2461 1.8229,0.8021 3.43618,1.6133 4.83985,2.43359 1.40362,0.8021 2.59762,1.81382 3.58203,3.03516 1.00257,1.22137 1.50387,2.66147 1.50391,4.32031 -4e-5,2.69793 -1.07556,5.1224 -3.22657,7.27344 -2.15107,2.15104 -4.79429,3.81901 -7.92968,5.0039 -3.13544,1.1849 -6.00653,1.77735 -8.61329,1.77735 l -0.30078,0 c -1.56772,0 -3.22657,-0.32813 -4.97656,-0.98438 -1.75,-0.65625 -3.20834,-1.60416 -4.375,-2.84375 -1.14844,-1.23958 -1.72266,-2.68879 -1.72266,-4.34765" />
      </g>
    </g>
    <text
       xml:space="preserve"
       style="font-size:56px;font-style:normal;font-variant:normal;font-weight:normal;font-stretch:normal;fill:#000000;fill-opacity:1;stroke:none;font-family:cmsy10;-inkscape-font-specification:Andale Mono"
       x="-33.069828"
       y="18.262941"
       id="text4373"
       transform="translate(254.79739,306.66351)"><tspan
         sodipodi:role="line"
         id="tspan4375"
         x="-33.069828"
         y="18.262941" /></text>
  </g>
</svg>
