<?xml version="1.0" encoding="UTF-8" standalone="no"?>
<!-- Created with Inkscape (http://www.inkscape.org/) -->

<svg
   xmlns:dc="http://purl.org/dc/elements/1.1/"
   xmlns:cc="http://creativecommons.org/ns#"
   xmlns:rdf="http://www.w3.org/1999/02/22-rdf-syntax-ns#"
   xmlns:svg="http://www.w3.org/2000/svg"
   xmlns="http://www.w3.org/2000/svg"
   xmlns:sodipodi="http://sodipodi.sourceforge.net/DTD/sodipodi-0.dtd"
   xmlns:inkscape="http://www.inkscape.org/namespaces/inkscape"
   width="210mm"
   height="297mm"
   id="svg2"
   version="1.1"
   inkscape:version="0.48.0 r9654"
   sodipodi:docname="photivo.svg">
  <defs
     id="defs4" />
  <sodipodi:namedview
     id="base"
     pagecolor="#ffffff"
     bordercolor="#666666"
     borderopacity="1.0"
     inkscape:pageopacity="0.0"
     inkscape:pageshadow="2"
     inkscape:zoom="1.92"
     inkscape:cx="477.45862"
     inkscape:cy="572.32078"
     inkscape:document-units="px"
     inkscape:current-layer="layer1"
     showgrid="false"
     inkscape:window-width="1350"
     inkscape:window-height="955"
     inkscape:window-x="484"
     inkscape:window-y="24"
     inkscape:window-maximized="0" />
  <metadata
     id="metadata7">
    <rdf:RDF>
      <cc:Work
         rdf:about="">
        <dc:format>image/svg+xml</dc:format>
        <dc:type
           rdf:resource="http://purl.org/dc/dcmitype/StillImage" />
        <dc:title></dc:title>
      </cc:Work>
    </rdf:RDF>
  </metadata>
  <g
     inkscape:label="Ebene 1"
     inkscape:groupmode="layer"
     id="layer1">
    <path
       style="fill:#dcdcdc;fill-opacity:1;stroke:#000000;stroke-width:2;stroke-miterlimit:4;stroke-opacity:1;stroke-dasharray:none"
       d="m 365.53941,395.89268 c -2.85973,-0.16659 -5.70665,-0.19509 -8.51417,-0.0941 l -0.42263,4.70072 c -1.69873,0.0736 -3.39512,0.1927 -5.06913,0.36604 l -1.15127,-4.59149 c -2.83787,0.31496 -5.63841,0.77815 -8.39623,1.3551 l 0.36102,4.69287 c -1.6583,0.36014 -3.32035,0.79558 -4.94313,1.25198 l -1.92124,-4.33207 c -2.7265,0.78979 -5.40683,1.72205 -8.02453,2.75946 l 1.15344,4.56032 c -1.58802,0.64259 -3.14773,1.34939 -4.68806,2.08431 l -2.60641,-3.94142 c -2.54406,1.23682 -5.0197,2.58876 -7.42591,4.05437 l 1.92124,4.33207 c -1.45577,0.9009 -2.90282,1.81518 -4.29958,2.80065 l -3.23578,-3.45288 c -2.29783,1.64699 -4.50269,3.41456 -6.63369,5.26885 l 2.60641,3.94141 c -1.28205,1.13208 -2.51188,2.32245 -3.72407,3.53007 l -3.80932,-2.86646 c -1.98264,2.00427 -3.88116,4.08932 -5.67036,6.276 l 3.26695,3.45506 c -1.07755,1.33609 -2.10954,2.70334 -3.10648,4.1058 l -4.20237,-2.17344 c -1.61779,2.31218 -3.11238,4.70206 -4.51125,7.17153 l 3.78033,2.83311 c -0.83466,1.49718 -1.6413,3.01021 -2.38664,4.56338 l -4.50626,-1.41153 c -1.19587,2.54209 -2.28312,5.1525 -3.24119,7.82422 l 4.20238,2.17343 c -0.56531,1.61368 -1.09505,3.24384 -1.56457,4.90281 l -4.68545,-0.6409 c -0.74388,2.70451 -1.33919,5.46008 -1.83117,8.2674 l 4.50627,1.41153 c -0.28299,1.68319 -0.517,3.37047 -0.70042,5.08854 l -4.74213,0.16961 c -0.087,0.87645 -0.15457,1.76318 -0.21642,2.64761 -0.13649,1.95195 -0.17637,3.88418 -0.18724,5.8136 l 4.65428,0.63872 c 0.002,1.72759 0.0668,3.44483 0.17246,5.14957 l -4.64076,0.95987 c 0.19778,2.83856 0.55037,5.63736 1.01001,8.40342 l 4.67979,-0.17397 c 0.29651,1.71069 0.65574,3.40957 1.05404,5.08591 l -4.37916,1.69865 c 0.67386,2.74624 1.45589,5.44642 2.37883,8.0919 l 4.64076,-0.95986 c 0.58359,1.6351 1.20634,3.24189 1.88637,4.83085 l -4.05521,2.44182 c 1.1275,2.5811 2.37288,5.10848 3.73173,7.55998 l 4.41251,-1.72765 c 0.84986,1.5073 1.75798,2.99915 2.69623,4.44891 l -3.56667,3.07118 c 1.55001,2.35589 3.21144,4.63566 4.97301,6.8323 l 4.02404,-2.444 c 1.09296,1.3442 2.2174,2.65841 3.39012,3.93356 l -3.01143,3.64256 c 1.92504,2.06234 3.95802,4.03173 6.07151,5.90666 l 3.56885,-3.10235 c 1.29911,1.13592 2.63066,2.23022 3.99921,3.28697 l -2.32277,4.09796 c 2.23232,1.69676 4.53793,3.32161 6.93152,4.80773 l 2.98025,-3.64474 c 1.47508,0.90159 2.98464,1.7588 4.51913,2.5715 l -1.59203,4.39967 c 2.48216,1.29094 5.02966,2.48256 7.64654,3.54202 l 2.32059,-4.06678 c 1.59985,0.63443 3.21034,1.21064 4.85855,1.74943 l -0.82358,4.61003 c 2.67709,0.85345 5.39462,1.56621 8.18107,2.16972 l 1.59204,-4.39967 c 1.68011,0.35154 3.38668,0.6693 5.10445,0.92081 l -0.0464,4.69571 c 2.03272,0.28256 4.08139,0.47335 6.15935,0.61866 0.75973,0.0531 1.52136,0.0941 2.27787,0.128 l 0.82358,-4.61002 c 1.72828,0.065 3.45768,0.0866 5.16549,0.0479 l 0.74165,4.6255 c 2.83736,-0.0842 5.63875,-0.31893 8.41062,-0.66492 l 0.0464,-4.6957 c 1.71101,-0.22659 3.41991,-0.47443 5.09965,-0.80248 l 1.50726,4.42843 c 2.79335,-0.56613 5.53006,-1.26526 8.22815,-2.08737 l -0.77282,-4.62768 c 1.64639,-0.51465 3.27652,-1.08363 4.88012,-1.69496 l 2.25042,4.10448 c 2.64046,-1.02883 5.24226,-2.16866 7.75857,-3.43591 l -1.53843,-4.4306 c 1.51593,-0.77716 3.002,-1.61116 4.46483,-2.47583 l 2.90659,3.68047 c 2.4281,-1.45888 4.78981,-3.02862 7.06425,-4.70619 l -2.24824,-4.13566 c 1.3724,-1.02845 2.7067,-2.08777 4.01401,-3.19653 l 3.50914,3.1274 c 2.13416,-1.83684 4.18462,-3.77435 6.13862,-5.80468 l -2.9066,-3.68047 c 1.16866,-1.23267 2.30424,-2.50117 3.3986,-3.80344 l 3.96018,2.50109 c 1.80563,-2.17904 3.51359,-4.43534 5.11075,-6.78502 l -3.53814,-3.16075 c 0.93885,-1.40341 1.85598,-2.8275 2.71211,-4.29002 l 4.38441,1.81025 c 1.41104,-2.45137 2.67207,-4.99789 3.85158,-7.59357 l -3.96018,-2.50109 c 0.68519,-1.53923 1.33045,-3.10153 1.92557,-4.68959 l 4.5636,1.03962 c 0.97541,-2.65863 1.81876,-5.37851 2.5438,-8.15492 l -4.32423,-1.77472 c 0.41556,-1.64057 0.77988,-3.28702 1.09913,-4.96667 l 4.68262,0.23351 c 0.50434,-2.75855 0.87283,-5.5631 1.1207,-8.41106 l -4.56359,-1.03963 c 0.0219,-0.27027 0.0377,-0.53943 0.0567,-0.81052 0.0992,-1.41831 0.14281,-2.84233 0.17177,-4.24836 l 4.67477,-0.55025 c 0.039,-2.8615 -0.0565,-5.67587 -0.2843,-8.47798 l -4.68262,-0.23351 c -0.15042,-1.69377 -0.36797,-3.38921 -0.61761,-5.0554 l 4.54223,-1.34267 c -0.44139,-2.80727 -1.07048,-5.57967 -1.76909,-8.29988 l -4.67477,0.55025 c -0.43432,-1.63723 -0.88546,-3.26165 -1.4144,-4.8605 l 4.21828,-2.08583 c -0.91397,-2.69858 -1.95171,-5.34281 -3.11109,-7.92382 l -4.54223,1.34267 c -0.70585,-1.53919 -1.45685,-3.05351 -2.25107,-4.5431 l 3.82762,-2.771 c -1.35073,-2.49046 -2.8354,-4.91843 -4.41036,-7.26284 l -4.21828,2.08583 c -0.95046,-1.39228 -1.94148,-2.76006 -2.97178,-4.09227 l 3.30573,-3.37137 c -1.74911,-2.22858 -3.61337,-4.38142 -5.56467,-6.43509 l -3.82761,2.771 c -1.17288,-1.21571 -2.36133,-2.3965 -3.6055,-3.54139 l 2.68377,-3.88475 c -2.08899,-1.89544 -4.28195,-3.68096 -6.54718,-5.37605 l -3.30573,3.37136 c -1.36246,-1.00324 -2.75898,-1.97008 -4.18341,-2.89261 l 1.99293,-4.30898 c -2.38615,-1.52086 -4.87394,-2.91985 -7.41154,-4.21477 l -2.6526,3.88693 c -1.50889,-0.75582 -3.05144,-1.47212 -4.612,-2.13943 l 1.22667,-4.55051 c -2.60209,-1.09065 -5.24678,-2.06064 -7.97289,-2.90699 l -1.99076,4.2778 c -1.61346,-0.48787 -3.23414,-0.91951 -4.88907,-1.31299 l 0.45386,-4.69854 c -2.74107,-0.63138 -5.54474,-1.15049 -8.38272,-1.52597 l -1.22885,4.58169 c -1.53916,-0.19203 -3.09917,-0.37334 -4.66518,-0.48285 -0.12512,-0.009 -0.24906,-0.018 -0.37409,-0.0262 l -0.36102,-4.69286 z"
       id="path3826"
       inkscape:connector-curvature="0" />
    <g
       id="g3001"
       transform="translate(135.2626,60.656481)">
      <rect
         ry="9.9417372"
         y="401.28021"
         x="191.52664"
         height="38.534161"
         width="125.15387"
         id="rect2995"
         style="fill:#00aa44;stroke:none" />
      <text
         sodipodi:linespacing="0%"
         id="text2989"
         y="429.5473"
         x="203.05014"
         style="font-size:40px;font-style:normal;font-variant:normal;font-weight:500;font-stretch:normal;line-height:0%;letter-spacing:0px;word-spacing:0px;fill:#000000;fill-opacity:1;stroke:none;font-family:mm stenxil;-inkscape-font-specification:mm stenxil Medium"
         xml:space="preserve"><tspan
           style="font-size:36px;letter-spacing:-1px"
           dx="0"
           y="429.5473"
           x="203.05014"
           id="tspan2991"
           sodipodi:role="line">photivo</tspan></text>
    </g>
    <text
       xml:space="preserve"
       style="font-size:28px;font-style:normal;font-variant:normal;font-weight:bold;font-stretch:normal;line-height:0%;letter-spacing:0px;word-spacing:0px;fill:#464646;fill-opacity:1;stroke:none;font-family:Droid Sans;-inkscape-font-specification:Droid Sans Bold"
       x="636.7157"
       y="147.52374"
       id="text3006"
       sodipodi:linespacing="0%"
       transform="matrix(0.76604444,0.64278761,-0.64278761,0.76604444,0,0)"><tspan
         sodipodi:role="line"
         id="tspan3008"
         x="636.7157"
         y="147.52374">Av</tspan></text>
    <text
       xml:space="preserve"
       style="font-size:28px;font-style:normal;font-variant:normal;font-weight:bold;font-stretch:normal;line-height:0%;letter-spacing:0px;word-spacing:0px;fill:#464646;fill-opacity:1;stroke:none;font-family:Droid Sans;-inkscape-font-specification:Droid Sans Bold"
       x="591.95715"
       y="-261.87042"
       id="text3010"
       sodipodi:linespacing="0%"
       transform="matrix(0.17364818,0.98480775,-0.98480775,0.17364818,0,0)"><tspan
         sodipodi:role="line"
         id="tspan3012"
         x="591.95715"
         y="-261.87042">Tv</tspan></text>
    <text
       xml:space="preserve"
       style="font-size:28px;font-style:normal;font-variant:normal;font-weight:bold;font-stretch:normal;line-height:0%;letter-spacing:0px;word-spacing:0px;fill:#464646;fill-opacity:1;stroke:none;font-family:Droid Sans;-inkscape-font-specification:Sans Bold"
       x="21.474133"
       y="613.57819"
       id="text3014"
       sodipodi:linespacing="0%"
       transform="matrix(0.76604444,-0.64278761,0.64278761,0.76604444,0,0)"><tspan
         sodipodi:role="line"
         id="tspan3016"
         x="21.474133"
         y="613.57819">M</tspan></text>
    <text
       xml:space="preserve"
       style="font-size:28px;font-style:normal;font-variant:normal;font-weight:bold;font-stretch:normal;line-height:0%;letter-spacing:0px;word-spacing:0px;fill:#464646;fill-opacity:1;stroke:none;font-family:Droid Sans;-inkscape-font-specification:Sans Bold"
       x="297.47842"
       y="-541.85681"
       id="text3018"
       sodipodi:linespacing="0%"
       transform="matrix(-0.5,0.8660254,-0.8660254,-0.5,0,0)"><tspan
         sodipodi:role="line"
         id="tspan3020"
         x="297.47842"
         y="-541.85681">S</tspan></text>
    <text
       xml:space="preserve"
       style="font-size:28px;font-style:normal;font-variant:normal;font-weight:bold;font-stretch:normal;line-height:0%;letter-spacing:0px;word-spacing:0px;fill:#464646;fill-opacity:1;stroke:none;font-family:Droid Sans;-inkscape-font-specification:Sans Bold"
       x="-356.53525"
       y="450.36081"
       id="text3022"
       sodipodi:linespacing="0%"
       transform="matrix(0.17364818,-0.98480775,0.98480775,0.17364818,0,0)"><tspan
         sodipodi:role="line"
         id="tspan3024"
         x="-356.53525"
         y="450.36081">B</tspan></text>
    <text
       xml:space="preserve"
       style="font-size:28px;font-style:normal;font-variant:normal;font-weight:bold;font-stretch:normal;line-height:0%;letter-spacing:0px;word-spacing:0px;fill:#464646;fill-opacity:1;stroke:none;font-family:Droid Sans;-inkscape-font-specification:Sans Bold"
       x="-116.63734"
       y="-565.35394"
       id="text3026"
       sodipodi:linespacing="0%"
       transform="matrix(-0.93969262,0.34202014,-0.34202014,-0.93969262,0,0)"><tspan
         sodipodi:role="line"
         id="tspan3028"
         x="-116.63734"
         y="-565.35394">X</tspan></text>
    <flowRoot
       xml:space="preserve"
       id="flowRoot3030"
       style="fill:black;stroke:none;stroke-opacity:1;stroke-width:1px;stroke-linejoin:miter;stroke-linecap:butt;fill-opacity:1;font-family:Droid Sans;font-style:normal;font-weight:bold;font-size:32px;-inkscape-font-specification:Sans Bold;font-stretch:normal;font-variant:normal;line-height:0%;letter-spacing:0px;word-spacing:0px"><flowRegion
         id="flowRegion3032"><rect
           id="rect3034"
           width="414.78873"
           height="200.70422"
           x="88.732391"
           y="558.7002"
           style="font-size:32px" /></flowRegion><flowPara
         id="flowPara3036" /></flowRoot>    <path
       inkscape:connector-curvature="0"
       id="path3879"
       d="m 365.53941,395.89268 c -2.85973,-0.16659 -5.70665,-0.19509 -8.51417,-0.0941 l -0.42263,4.70072 c -1.69873,0.0736 -3.39512,0.1927 -5.06913,0.36604 l -1.15127,-4.59149 c -2.83787,0.31496 -5.63841,0.77815 -8.39623,1.3551 l 0.36102,4.69287 c -1.6583,0.36014 -3.32035,0.79558 -4.94313,1.25198 l -1.92124,-4.33207 c -2.7265,0.78979 -5.40683,1.72205 -8.02453,2.75946 l 1.15344,4.56032 c -1.58802,0.64259 -3.14773,1.34939 -4.68806,2.08431 l -2.60641,-3.94142 c -2.54406,1.23682 -5.0197,2.58876 -7.42591,4.05437 l 1.92124,4.33207 c -1.45577,0.9009 -2.90282,1.81518 -4.29958,2.80065 l -3.23578,-3.45288 c -2.29783,1.64699 -4.50269,3.41456 -6.63369,5.26885 l 2.60641,3.94141 c -1.28205,1.13208 -2.51188,2.32245 -3.72407,3.53007 l -3.80932,-2.86646 c -1.98264,2.00427 -3.88116,4.08932 -5.67036,6.276 l 3.26695,3.45506 c -1.07755,1.33609 -2.10954,2.70334 -3.10648,4.1058 l -4.20237,-2.17344 c -1.61779,2.31218 -3.11238,4.70206 -4.51125,7.17153 l 3.78033,2.83311 c -0.83466,1.49718 -1.6413,3.01021 -2.38664,4.56338 l -4.50626,-1.41153 c -1.19587,2.54209 -2.28312,5.1525 -3.24119,7.82422 l 4.20238,2.17343 c -0.56531,1.61368 -1.09505,3.24384 -1.56457,4.90281 l -4.68545,-0.6409 c -0.74388,2.70451 -1.33919,5.46008 -1.83117,8.2674 l 4.50627,1.41153 c -0.28299,1.68319 -0.517,3.37047 -0.70042,5.08854 l -4.74213,0.16961 c -0.087,0.87645 -0.15457,1.76318 -0.21642,2.64761 -0.13649,1.95195 -0.17637,3.88418 -0.18724,5.8136 l 4.65428,0.63872 c 0.002,1.72759 0.0668,3.44483 0.17246,5.14957 l -4.64076,0.95987 c 0.19778,2.83856 0.55037,5.63736 1.01001,8.40342 l 4.67979,-0.17397 c 0.29651,1.71069 0.65574,3.40957 1.05404,5.08591 l -4.37916,1.69865 c 0.67386,2.74624 1.45589,5.44642 2.37883,8.0919 l 4.64076,-0.95986 c 0.58359,1.6351 1.20634,3.24189 1.88637,4.83085 l -4.05521,2.44182 c 1.1275,2.5811 2.37288,5.10848 3.73173,7.55998 l 4.41251,-1.72765 c 0.84986,1.5073 1.75798,2.99915 2.69623,4.44891 l -3.56667,3.07118 c 1.55001,2.35589 3.21144,4.63566 4.97301,6.8323 l 4.02404,-2.444 c 1.09296,1.3442 2.2174,2.65841 3.39012,3.93356 l -3.01143,3.64256 c 1.92504,2.06234 3.95802,4.03173 6.07151,5.90666 l 3.56885,-3.10235 c 1.29911,1.13592 2.63066,2.23022 3.99921,3.28697 l -2.32277,4.09796 c 2.23232,1.69676 4.53793,3.32161 6.93152,4.80773 l 2.98025,-3.64474 c 1.47508,0.90159 2.98464,1.7588 4.51913,2.5715 l -1.59203,4.39967 c 2.48216,1.29094 5.02966,2.48256 7.64654,3.54202 l 2.32059,-4.06678 c 1.59985,0.63443 3.21034,1.21064 4.85855,1.74943 l -0.82358,4.61003 c 2.67709,0.85345 5.39462,1.56621 8.18107,2.16972 l 1.59204,-4.39967 c 1.68011,0.35154 3.38668,0.6693 5.10445,0.92081 l -0.0464,4.69571 c 2.03272,0.28256 4.08139,0.47335 6.15935,0.61866 0.75973,0.0531 1.52136,0.0941 2.27787,0.128 l 0.82358,-4.61002 c 1.72828,0.065 3.45768,0.0866 5.16549,0.0479 l 0.74165,4.6255 c 2.83736,-0.0842 5.63875,-0.31893 8.41062,-0.66492 l 0.0464,-4.6957 c 1.71101,-0.22659 3.41991,-0.47443 5.09965,-0.80248 l 1.50726,4.42843 c 2.79335,-0.56613 5.53006,-1.26526 8.22815,-2.08737 l -0.77282,-4.62768 c 1.64639,-0.51465 3.27652,-1.08363 4.88012,-1.69496 l 2.25042,4.10448 c 2.64046,-1.02883 5.24226,-2.16866 7.75857,-3.43591 l -1.53843,-4.4306 c 1.51593,-0.77716 3.002,-1.61116 4.46483,-2.47583 l 2.90659,3.68047 c 2.4281,-1.45888 4.78981,-3.02862 7.06425,-4.70619 l -2.24824,-4.13566 c 1.3724,-1.02845 2.7067,-2.08777 4.01401,-3.19653 l 3.50914,3.1274 c 2.13416,-1.83684 4.18462,-3.77435 6.13862,-5.80468 l -2.9066,-3.68047 c 1.16866,-1.23267 2.30424,-2.50117 3.3986,-3.80344 l 3.96018,2.50109 c 1.80563,-2.17904 3.51359,-4.43534 5.11075,-6.78502 l -3.53814,-3.16075 c 0.93885,-1.40341 1.85598,-2.8275 2.71211,-4.29002 l 4.38441,1.81025 c 1.41104,-2.45137 2.67207,-4.99789 3.85158,-7.59357 l -3.96018,-2.50109 c 0.68519,-1.53923 1.33045,-3.10153 1.92557,-4.68959 l 4.5636,1.03962 c 0.97541,-2.65863 1.81876,-5.37851 2.5438,-8.15492 l -4.32423,-1.77472 c 0.41556,-1.64057 0.77988,-3.28702 1.09913,-4.96667 l 4.68262,0.23351 c 0.50434,-2.75855 0.87283,-5.5631 1.1207,-8.41106 l -4.56359,-1.03963 c 0.0219,-0.27027 0.0377,-0.53943 0.0567,-0.81052 0.0992,-1.41831 0.14281,-2.84233 0.17177,-4.24836 l 4.67477,-0.55025 c 0.039,-2.8615 -0.0565,-5.67587 -0.2843,-8.47798 l -4.68262,-0.23351 c -0.15042,-1.69377 -0.36797,-3.38921 -0.61761,-5.0554 l 4.54223,-1.34267 c -0.44139,-2.80727 -1.07048,-5.57967 -1.76909,-8.29988 l -4.67477,0.55025 c -0.43432,-1.63723 -0.88546,-3.26165 -1.4144,-4.8605 l 4.21828,-2.08583 c -0.91397,-2.69858 -1.95171,-5.34281 -3.11109,-7.92382 l -4.54223,1.34267 c -0.70585,-1.53919 -1.45685,-3.05351 -2.25107,-4.5431 l 3.82762,-2.771 c -1.35073,-2.49046 -2.8354,-4.91843 -4.41036,-7.26284 l -4.21828,2.08583 c -0.95046,-1.39228 -1.94148,-2.76006 -2.97178,-4.09227 l 3.30573,-3.37137 c -1.74911,-2.22858 -3.61337,-4.38142 -5.56467,-6.43509 l -3.82761,2.771 c -1.17288,-1.21571 -2.36133,-2.3965 -3.6055,-3.54139 l 2.68377,-3.88475 c -2.08899,-1.89544 -4.28195,-3.68096 -6.54718,-5.37605 l -3.30573,3.37136 c -1.36246,-1.00324 -2.75898,-1.97008 -4.18341,-2.89261 l 1.99293,-4.30898 c -2.38615,-1.52086 -4.87394,-2.91985 -7.41154,-4.21477 l -2.6526,3.88693 c -1.50889,-0.75582 -3.05144,-1.47212 -4.612,-2.13943 l 1.22667,-4.55051 c -2.60209,-1.09065 -5.24678,-2.06064 -7.97289,-2.90699 l -1.99076,4.2778 c -1.61346,-0.48787 -3.23414,-0.91951 -4.88907,-1.31299 l 0.45386,-4.69854 c -2.74107,-0.63138 -5.54474,-1.15049 -8.38272,-1.52597 l -1.22885,4.58169 c -1.53916,-0.19203 -3.09917,-0.37334 -4.66518,-0.48285 -0.12512,-0.009 -0.24906,-0.018 -0.37409,-0.0262 l -0.36102,-4.69286 z"
       style="fill:none;stroke:#000000;stroke-width:2;stroke-miterlimit:4;stroke-opacity:1;stroke-dasharray:none" />
    <g
       id="g3975"
       inkscape:export-filename="/home/michael/Dokumente/photivo.png"
       inkscape:export-xdpi="31.839697"
       inkscape:export-ydpi="31.839697"
       transform="translate(-6.2500001,-242.70834)">
      <path
         inkscape:connector-curvature="0"
         id="path3826-9"
         d="m 579.53337,394.27736 c -2.86439,0.0333 -5.70636,0.20346 -8.5,0.5 l -0.0937,4.71875 c -1.68946,0.19189 -3.3734,0.42906 -5.03125,0.71875 l -1.46875,-4.5 c -2.80898,0.51216 -5.57039,1.16957 -8.28125,1.9375 l 0.6875,4.65625 c -1.62914,0.47494 -3.25676,1.02526 -4.84375,1.59375 l -2.21875,-4.1875 c -2.66477,0.97805 -5.27354,2.09501 -7.8125,3.3125 l 1.46875,4.46875 c -1.53933,0.7518 -3.04594,1.56568 -4.53125,2.40625 l -2.875,-3.75 c -2.45159,1.41127 -4.82689,2.93261 -7.125,4.5625 l 2.21875,4.1875 c -1.38938,1.00025 -2.76913,2.01325 -4.09375,3.09375 l -3.46875,-3.21875 c -2.17735,1.80326 -4.25354,3.72033 -6.25,5.71875 l 2.875,3.75 c -1.19996,1.21875 -2.34375,2.49201 -3.46875,3.78125 l -4,-2.59375 c -1.838,2.13769 -3.58645,4.35009 -5.21875,6.65625 l 3.5,3.21875 c -0.98172,1.40801 -1.91582,2.84391 -2.8125,4.3125 l -4.34375,-1.875 c -1.45256,2.4194 -2.7768,4.90771 -4,7.46875 l 3.96875,2.5625 c -0.72819,1.55176 -1.42732,3.11737 -2.0625,4.71875 l -4.59375,-1.09375 c -1.01563,2.61932 -1.91814,5.29921 -2.6875,8.03125 l 4.34375,1.875 c -0.45137,1.64918 -0.8661,3.31232 -1.21875,5 l -4.71875,-0.3125 c -0.55341,2.74982 -0.95505,5.5402 -1.25,8.375 l 4.59375,1.09375 c -0.16488,1.69883 -0.28062,3.39832 -0.34375,5.125 l -4.71875,0.5 c -0.0256,0.88038 -0.0312,1.76966 -0.0312,2.65625 0,1.95672 0.095,3.88702 0.21875,5.8125 l 4.6875,0.3125 c 0.12286,1.72322 0.30694,3.43178 0.53125,5.125 l -4.5625,1.28125 c 0.39531,2.81785 0.94228,5.58524 1.59375,8.3125 l 4.65625,-0.5 c 0.41512,1.68584 0.89198,3.35553 1.40625,5 l -4.25,1.99999 c 0.86379,2.69254 1.83226,5.33159 2.9375,7.90625 l 4.5625,-1.28125 c 0.69622,1.59041 1.42954,3.14984 2.21875,4.6875 l -3.875,2.71875 c 1.30481,2.49616 2.72345,4.93051 4.25,7.28125 l 4.28125,-2.03125 c 0.95293,1.44435 1.96291,2.86922 3,4.25 l -3.34375,3.3125 c 1.71058,2.24202 3.52699,4.40034 5.4375,6.46875 l 3.84375,-2.71875 c 1.18406,1.26469 2.39744,2.49726 3.65625,3.6875 l -2.75,3.84375 c 2.06421,1.92303 4.22962,3.74581 6.46875,5.46875 l 3.34375,-3.34375 c 1.37518,1.04253 2.77982,2.04128 4.21875,3 l -2.03125,4.25 c 2.34524,1.53691 4.75858,2.99697 7.25,4.3125 l 2.71875,-3.84375 c 1.53438,0.7965 3.10006,1.54632 4.6875,2.25 l -1.28125,4.5 c 2.56617,1.11465 5.19059,2.12566 7.875,3 l 2.03125,-4.21875 c 1.64021,0.52128 3.28697,0.98375 4.96875,1.40625 l -0.5,4.65625 c 2.73011,0.66463 5.49074,1.18609 8.3125,1.59375 l 1.28125,-4.5 c 1.70054,0.23348 3.42512,0.43142 5.15625,0.5625 l 0.28125,4.6875 c 2.04748,0.14008 4.10447,0.1875 6.1875,0.1875 0.76159,0 1.52422,-0.0123 2.28125,-0.0312 l 0.5,-4.65625 c 1.7286,-0.0557 3.45529,-0.15483 5.15625,-0.3125 l 1.0625,4.5625 c 2.82457,-0.28194 5.60277,-0.71149 8.34375,-1.25 l -0.28125,-4.6875 c 1.69104,-0.34539 3.37849,-0.71183 5.03125,-1.15625 l 1.8125,4.3125 c 2.74706,-0.75961 5.42833,-1.64794 8.0625,-2.65625 l -1.09375,-4.5625 c 1.60648,-0.62825 3.19295,-1.30955 4.75,-2.03125 l 2.53125,3.9375 c 2.56226,-1.21052 5.07821,-2.52906 7.5,-3.96875 l -1.84375,-4.3125 c 1.45803,-0.88101 2.8823,-1.81664 4.28125,-2.78125 l 3.15625,3.46875 c 2.32041,-1.6247 4.56687,-3.35536 6.71875,-5.1875 l -2.53125,-3.96875 c 1.29731,-1.12168 2.55447,-2.2715 3.78125,-3.46875 l 3.71875,2.875 c 2.00083,-1.98124 3.91114,-4.05706 5.71875,-6.21875 l -3.15625,-3.46875 c 1.07982,-1.31119 2.12415,-2.65582 3.125,-4.03125 l 4.125,2.21875 c 1.64923,-2.29969 3.19564,-4.66964 4.625,-7.125 l -3.75,-2.90625 c 0.83867,-1.46548 1.65422,-2.95007 2.40625,-4.46875 l 4.5,1.5 c 1.23661,-2.54383 2.31693,-5.17211 3.3125,-7.84375 l -4.125,-2.21875 c 0.57615,-1.58328 1.11086,-3.18678 1.59375,-4.81249 l 4.625,0.71875 c 0.78758,-2.72019 1.43915,-5.49228 1.96875,-8.3125 l -4.4375,-1.46875 c 0.30011,-1.66557 0.54869,-3.33342 0.75,-5.03125 l 4.6875,-0.0937 c 0.31069,-2.78701 0.48264,-5.61043 0.53125,-8.46875 l -4.625,-0.71875 c 0.003,-0.27114 0,-0.54075 0,-0.8125 0,-1.42178 -0.0558,-2.84537 -0.125,-4.25 l 4.625,-0.875 c -0.16073,-2.85725 -0.45229,-5.6581 -0.875,-8.4375 l -4.6875,0.0937 c -0.2682,-1.67915 -0.60349,-3.35528 -0.96875,-5 l 4.4375,-1.65625 c -0.63614,-2.76964 -1.45709,-5.4914 -2.34375,-8.15625 l -4.625,0.875 c -0.54747,-1.60294 -1.11082,-3.19194 -1.75,-4.75 l 4.0625,-2.375 c -1.09999,-2.62825 -2.31965,-5.19365 -3.65625,-7.6875 l -4.4375,1.65625 c -0.8115,-1.4862 -1.66631,-2.94444 -2.5625,-4.375 l 3.625,-3.03125 c -1.52116,-2.39018 -3.17158,-4.70867 -4.90625,-6.9375 l -4.0625,2.375 c -1.04527,-1.32259 -2.12928,-2.61791 -3.25,-3.875 l 3.0625,-3.59375 c -1.90031,-2.10114 -3.9102,-4.1187 -6,-6.03125 l -3.625,3.03125 c -1.25482,-1.13093 -2.52274,-2.22594 -3.84375,-3.28125 l 2.40625,-4.0625 c -2.21612,-1.7451 -4.52829,-3.3733 -6.90625,-4.90625 l -3.0625,3.59375 c -1.42912,-0.90576 -2.88969,-1.77283 -4.375,-2.59375 l 1.6875,-4.4375 c -2.48643,-1.35071 -5.06575,-2.57275 -7.6875,-3.6875 l -2.375,4.0625 c -1.55793,-0.64873 -3.14669,-1.25568 -4.75,-1.8125 l 0.90625,-4.625 c -2.67183,-0.90648 -5.37774,-1.68962 -8.15625,-2.34375 l -1.6875,4.40625 c -1.64356,-0.37413 -3.29041,-0.69167 -4.96875,-0.96875 l 0.125,-4.71875 c -2.77844,-0.43863 -5.61149,-0.7609 -8.46875,-0.9375 l -0.90625,4.65625 c -1.54881,-0.0842 -3.11767,-0.15625 -4.6875,-0.15625 -0.12542,0 -0.24971,-5.4e-4 -0.375,0 l -0.6875,-4.65625 z"
         style="fill:#dcdcdc;fill-opacity:1;stroke:none" />
      <path
         id="rect2995-5"
         d="m 556.96875,460.46875 c -5.50772,0 -9.9375,4.42978 -9.9375,9.9375 l 0,18.65625 c 0,5.50772 4.42978,9.9375 9.9375,9.9375 L 662.25,499 c 0.62359,0 1.22131,-0.0475 1.8125,-0.15625 0.29766,-1.65546 0.54992,-3.31251 0.75,-5 L 669.5,493.75 c 0.31069,-2.78701 0.48264,-5.61043 0.53125,-8.46875 l -4.625,-0.71875 c 0.003,-0.27114 0,-0.54075 0,-0.8125 0,-1.42178 -0.0558,-2.84537 -0.125,-4.25 l 4.625,-0.875 c -0.16073,-2.85725 -0.45229,-5.6581 -0.875,-8.4375 l -4.6875,0.0937 c -0.2682,-1.67915 -0.60349,-3.35528 -0.96875,-5 l 4.4375,-1.65625 c -0.13235,-0.57621 -0.25898,-1.14677 -0.40625,-1.71875 -1.50547,-0.9156 -3.25825,-1.4375 -5.15625,-1.4375 l -105.28125,0 z"
         style="fill:#00aa44;stroke:none"
         inkscape:connector-curvature="0" />
      <text
         sodipodi:linespacing="0%"
         id="text2989-5"
         y="488.73334"
         x="558.54919"
         style="font-size:40px;font-style:normal;font-variant:normal;font-weight:500;font-stretch:normal;line-height:0%;letter-spacing:0px;word-spacing:0px;fill:#000000;fill-opacity:1;stroke:none;font-family:mm stenxil;-inkscape-font-specification:mm stenxil Medium"
         xml:space="preserve"><tspan
           style="font-size:36px;letter-spacing:-1px"
           dx="0"
           y="488.73334"
           x="558.54919"
           id="tspan2991-3"
           sodipodi:role="line">photivo</tspan></text>
      <text
         transform="matrix(0.70710678,0.70710678,-0.70710678,0.70710678,0,0)"
         sodipodi:linespacing="0%"
         id="text3006-2"
         y="-58.406631"
         x="800.53711"
         style="font-size:28px;font-style:normal;font-variant:normal;font-weight:bold;font-stretch:normal;line-height:0%;letter-spacing:0px;word-spacing:0px;fill:#464646;fill-opacity:1;stroke:none;font-family:Droid Sans;-inkscape-font-specification:Droid Sans Bold"
         xml:space="preserve"><tspan
           y="-58.406631"
           x="800.53711"
           id="tspan3008-8"
           sodipodi:role="line">Av</tspan></text>
      <text
         transform="matrix(0,1,-1,0,0,0)"
         sodipodi:linespacing="0%"
         id="text3010-0"
         y="-569.02802"
         x="532.58221"
         style="font-size:28px;font-style:normal;font-variant:normal;font-weight:bold;font-stretch:normal;line-height:0%;letter-spacing:0px;word-spacing:0px;fill:#464646;fill-opacity:1;stroke:none;font-family:Droid Sans;-inkscape-font-specification:Droid Sans Bold"
         xml:space="preserve"><tspan
           y="-569.02802"
           x="532.58221"
           id="tspan3012-6"
           sodipodi:role="line">Tv</tspan></text>
      <text
         transform="matrix(0.70710678,-0.70710678,0.70710678,0.70710678,0,0)"
         sodipodi:linespacing="0%"
         id="text3014-2"
         y="755.93719"
         x="123.42506"
         style="font-size:28px;font-style:normal;font-variant:normal;font-weight:bold;font-stretch:normal;line-height:0%;letter-spacing:0px;word-spacing:0px;fill:#464646;fill-opacity:1;stroke:none;font-family:Droid Sans;-inkscape-font-specification:Sans Bold"
         xml:space="preserve"><tspan
           y="755.93719"
           x="123.42506"
           id="tspan3016-9"
           sodipodi:role="line">M</tspan></text>
      <text
         inkscape:transform-center-y="226.76056"
         inkscape:transform-center-x="-78.873239"
         transform="matrix(-0.70710678,0.70710678,-0.70710678,-0.70710678,0,0)"
         sodipodi:linespacing="0%"
         id="text3018-5"
         y="-740.73853"
         x="-6.3315759"
         style="font-size:28px;font-style:normal;font-variant:normal;font-weight:bold;font-stretch:normal;line-height:0%;letter-spacing:0px;word-spacing:0px;fill:#464646;fill-opacity:1;stroke:none;font-family:Droid Sans;-inkscape-font-specification:Sans Bold"
         xml:space="preserve"><tspan
           y="-740.73853"
           x="-6.3315759"
           id="tspan3020-7"
           sodipodi:role="line">S</tspan></text>
      <text
         transform="matrix(0,-1,1,0,0,0)"
         sodipodi:linespacing="0%"
         id="text3022-2"
         y="590.23456"
         x="-423.15659"
         style="font-size:28px;font-style:normal;font-variant:normal;font-weight:bold;font-stretch:normal;line-height:0%;letter-spacing:0px;word-spacing:0px;fill:#464646;fill-opacity:1;stroke:none;font-family:Droid Sans;-inkscape-font-specification:Sans Bold"
         xml:space="preserve"><tspan
           y="590.23456"
           x="-423.15659"
           id="tspan3024-9"
           sodipodi:role="line">B</tspan></text>
      <text
         transform="scale(-1,-1)"
         sodipodi:linespacing="0%"
         id="text3026-9"
         y="-471.37885"
         x="-518.46216"
         style="font-size:28px;font-style:normal;font-variant:normal;font-weight:bold;font-stretch:normal;line-height:0%;letter-spacing:0px;word-spacing:0px;fill:#464646;fill-opacity:1;stroke:none;font-family:Droid Sans;-inkscape-font-specification:Sans Bold"
         xml:space="preserve"><tspan
           y="-471.37885"
           x="-518.46216"
           id="tspan3028-4"
           sodipodi:role="line">X</tspan></text>
      <path
         style="fill:none;stroke:#000000;stroke-width:2;stroke-miterlimit:4;stroke-opacity:1;stroke-dasharray:none"
         d="m 579.53337,394.27736 c -2.86439,0.0333 -5.70636,0.20346 -8.5,0.5 l -0.0937,4.71875 c -1.68946,0.19189 -3.3734,0.42906 -5.03125,0.71875 l -1.46875,-4.5 c -2.80898,0.51216 -5.57039,1.16957 -8.28125,1.9375 l 0.6875,4.65625 c -1.62914,0.47494 -3.25676,1.02526 -4.84375,1.59375 l -2.21875,-4.1875 c -2.66477,0.97805 -5.27354,2.09501 -7.8125,3.3125 l 1.46875,4.46875 c -1.53933,0.7518 -3.04594,1.56568 -4.53125,2.40625 l -2.875,-3.75 c -2.45159,1.41127 -4.82689,2.93261 -7.125,4.5625 l 2.21875,4.1875 c -1.38938,1.00025 -2.76913,2.01325 -4.09375,3.09375 l -3.46875,-3.21875 c -2.17735,1.80326 -4.25354,3.72033 -6.25,5.71875 l 2.875,3.75 c -1.19996,1.21875 -2.34375,2.49201 -3.46875,3.78125 l -4,-2.59375 c -1.838,2.13769 -3.58645,4.35009 -5.21875,6.65625 l 3.5,3.21875 c -0.98172,1.40801 -1.91582,2.84391 -2.8125,4.3125 l -4.34375,-1.875 c -1.45256,2.4194 -2.7768,4.90771 -4,7.46875 l 3.96875,2.5625 c -0.72819,1.55176 -1.42732,3.11737 -2.0625,4.71875 l -4.59375,-1.09375 c -1.01563,2.61932 -1.91814,5.29921 -2.6875,8.03125 l 4.34375,1.875 c -0.45137,1.64918 -0.8661,3.31232 -1.21875,5 l -4.71875,-0.3125 c -0.55341,2.74982 -0.95505,5.5402 -1.25,8.375 l 4.59375,1.09375 c -0.16488,1.69883 -0.28062,3.39832 -0.34375,5.125 l -4.71875,0.5 c -0.0256,0.88038 -0.0312,1.76966 -0.0312,2.65625 0,1.95672 0.095,3.88702 0.21875,5.8125 l 4.6875,0.3125 c 0.12286,1.72322 0.30694,3.43178 0.53125,5.125 l -4.5625,1.28125 c 0.39531,2.81785 0.94228,5.58524 1.59375,8.3125 l 4.65625,-0.5 c 0.41512,1.68584 0.89198,3.35553 1.40625,5 l -4.25,1.99999 c 0.86379,2.69254 1.83226,5.33159 2.9375,7.90625 l 4.5625,-1.28125 c 0.69622,1.59041 1.42954,3.14984 2.21875,4.6875 l -3.875,2.71875 c 1.30481,2.49616 2.72345,4.93051 4.25,7.28125 l 4.28125,-2.03125 c 0.95293,1.44435 1.96291,2.86922 3,4.25 l -3.34375,3.3125 c 1.71058,2.24202 3.52699,4.40034 5.4375,6.46875 l 3.84375,-2.71875 c 1.18406,1.26469 2.39744,2.49726 3.65625,3.6875 l -2.75,3.84375 c 2.06421,1.92303 4.22962,3.74581 6.46875,5.46875 l 3.34375,-3.34375 c 1.37518,1.04253 2.77982,2.04128 4.21875,3 l -2.03125,4.25 c 2.34524,1.53691 4.75858,2.99697 7.25,4.3125 l 2.71875,-3.84375 c 1.53438,0.7965 3.10006,1.54632 4.6875,2.25 l -1.28125,4.5 c 2.56617,1.11465 5.19059,2.12566 7.875,3 l 2.03125,-4.21875 c 1.64021,0.52128 3.28697,0.98375 4.96875,1.40625 l -0.5,4.65625 c 2.73011,0.66463 5.49074,1.18609 8.3125,1.59375 l 1.28125,-4.5 c 1.70054,0.23348 3.42512,0.43142 5.15625,0.5625 l 0.28125,4.6875 c 2.04748,0.14008 4.10447,0.1875 6.1875,0.1875 0.76159,0 1.52422,-0.0123 2.28125,-0.0312 l 0.5,-4.65625 c 1.7286,-0.0557 3.45529,-0.15483 5.15625,-0.3125 l 1.0625,4.5625 c 2.82457,-0.28194 5.60277,-0.71149 8.34375,-1.25 l -0.28125,-4.6875 c 1.69104,-0.34539 3.37849,-0.71183 5.03125,-1.15625 l 1.8125,4.3125 c 2.74706,-0.75961 5.42833,-1.64794 8.0625,-2.65625 l -1.09375,-4.5625 c 1.60648,-0.62825 3.19295,-1.30955 4.75,-2.03125 l 2.53125,3.9375 c 2.56226,-1.21052 5.07821,-2.52906 7.5,-3.96875 l -1.84375,-4.3125 c 1.45803,-0.88101 2.8823,-1.81664 4.28125,-2.78125 l 3.15625,3.46875 c 2.32041,-1.6247 4.56687,-3.35536 6.71875,-5.1875 l -2.53125,-3.96875 c 1.29731,-1.12168 2.55447,-2.2715 3.78125,-3.46875 l 3.71875,2.875 c 2.00083,-1.98124 3.91114,-4.05706 5.71875,-6.21875 l -3.15625,-3.46875 c 1.07982,-1.31119 2.12415,-2.65582 3.125,-4.03125 l 4.125,2.21875 c 1.64923,-2.29969 3.19564,-4.66964 4.625,-7.125 l -3.75,-2.90625 c 0.83867,-1.46548 1.65422,-2.95007 2.40625,-4.46875 l 4.5,1.5 c 1.23661,-2.54383 2.31693,-5.17211 3.3125,-7.84375 l -4.125,-2.21875 c 0.57615,-1.58328 1.11086,-3.18678 1.59375,-4.81249 l 4.625,0.71875 c 0.78758,-2.72019 1.43915,-5.49228 1.96875,-8.3125 l -4.4375,-1.46875 c 0.30011,-1.66557 0.54869,-3.33342 0.75,-5.03125 l 4.6875,-0.0937 c 0.31069,-2.78701 0.48264,-5.61043 0.53125,-8.46875 l -4.625,-0.71875 c 0.003,-0.27114 0,-0.54075 0,-0.8125 0,-1.42178 -0.0558,-2.84537 -0.125,-4.25 l 4.625,-0.875 c -0.16073,-2.85725 -0.45229,-5.6581 -0.875,-8.4375 l -4.6875,0.0937 c -0.2682,-1.67915 -0.60349,-3.35528 -0.96875,-5 l 4.4375,-1.65625 c -0.63614,-2.76964 -1.45709,-5.4914 -2.34375,-8.15625 l -4.625,0.875 c -0.54747,-1.60294 -1.11082,-3.19194 -1.75,-4.75 l 4.0625,-2.375 c -1.09999,-2.62825 -2.31965,-5.19365 -3.65625,-7.6875 l -4.4375,1.65625 c -0.8115,-1.4862 -1.66631,-2.94444 -2.5625,-4.375 l 3.625,-3.03125 c -1.52116,-2.39018 -3.17158,-4.70867 -4.90625,-6.9375 l -4.0625,2.375 c -1.04527,-1.32259 -2.12928,-2.61791 -3.25,-3.875 l 3.0625,-3.59375 c -1.90031,-2.10114 -3.9102,-4.1187 -6,-6.03125 l -3.625,3.03125 c -1.25482,-1.13093 -2.52274,-2.22594 -3.84375,-3.28125 l 2.40625,-4.0625 c -2.21612,-1.7451 -4.52829,-3.3733 -6.90625,-4.90625 l -3.0625,3.59375 c -1.42912,-0.90576 -2.88969,-1.77283 -4.375,-2.59375 l 1.6875,-4.4375 c -2.48643,-1.35071 -5.06575,-2.57275 -7.6875,-3.6875 l -2.375,4.0625 c -1.55793,-0.64873 -3.14669,-1.25568 -4.75,-1.8125 l 0.90625,-4.625 c -2.67183,-0.90648 -5.37774,-1.68962 -8.15625,-2.34375 l -1.6875,4.40625 c -1.64356,-0.37413 -3.29041,-0.69167 -4.96875,-0.96875 l 0.125,-4.71875 c -2.77844,-0.43863 -5.61149,-0.7609 -8.46875,-0.9375 l -0.90625,4.65625 c -1.54881,-0.0842 -3.11767,-0.15625 -4.6875,-0.15625 -0.12542,0 -0.24971,-5.4e-4 -0.375,0 l -0.6875,-4.65625 z"
         id="path3973"
         inkscape:connector-curvature="0" />
    </g>
    <path
       inkscape:connector-curvature="0"
       id="path3024"
       d="m 579.53941,395.89268 c -2.85973,-0.16659 -5.70665,-0.19509 -8.51417,-0.0941 l -0.42263,4.70072 c -1.69873,0.0736 -3.39512,0.1927 -5.06913,0.36604 l -1.15127,-4.59149 c -2.83787,0.31496 -5.63841,0.77815 -8.39623,1.3551 l 0.36102,4.69287 c -1.6583,0.36014 -3.32035,0.79558 -4.94313,1.25198 l -1.92124,-4.33207 c -2.7265,0.78979 -5.40683,1.72205 -8.02453,2.75946 l 1.15344,4.56032 c -1.58802,0.64259 -3.14773,1.34939 -4.68806,2.08431 l -2.60641,-3.94142 c -2.54406,1.23682 -5.0197,2.58876 -7.42591,4.05437 l 1.92124,4.33207 c -1.45577,0.9009 -2.90282,1.81518 -4.29958,2.80065 l -3.23578,-3.45288 c -2.29783,1.64699 -4.50269,3.41456 -6.63369,5.26885 l 2.60641,3.94141 c -1.28205,1.13208 -2.51188,2.32245 -3.72407,3.53007 l -3.80932,-2.86646 c -1.98264,2.00427 -3.88116,4.08932 -5.67036,6.276 l 3.26695,3.45506 c -1.07755,1.33609 -2.10954,2.70334 -3.10648,4.1058 l -4.20237,-2.17344 c -1.61779,2.31218 -3.11238,4.70206 -4.51125,7.17153 l 3.78033,2.83311 c -0.83466,1.49718 -1.6413,3.01021 -2.38664,4.56338 l -4.50626,-1.41153 c -1.19587,2.54209 -2.28312,5.1525 -3.24119,7.82422 l 4.20238,2.17343 c -0.56531,1.61368 -1.09505,3.24384 -1.56457,4.90281 l -4.68545,-0.6409 c -0.74388,2.70451 -1.33919,5.46008 -1.83117,8.2674 l 4.50627,1.41153 c -0.28299,1.68319 -0.517,3.37047 -0.70042,5.08854 l -4.74213,0.16961 c -0.087,0.87645 -0.15457,1.76318 -0.21642,2.64761 -0.13649,1.95195 -0.17637,3.88418 -0.18724,5.8136 l 4.65428,0.63872 c 0.002,1.72759 0.0668,3.44483 0.17246,5.14957 l -4.64076,0.95987 c 0.19778,2.83856 0.55037,5.63736 1.01001,8.40342 l 4.67979,-0.17397 c 0.29651,1.71069 0.65574,3.40957 1.05404,5.08591 l -4.37916,1.69865 c 0.67386,2.74624 1.45589,5.44642 2.37883,8.0919 l 4.64076,-0.95986 c 0.58359,1.6351 1.20634,3.24189 1.88637,4.83085 l -4.05521,2.44182 c 1.1275,2.5811 2.37288,5.10848 3.73173,7.55998 l 4.41251,-1.72765 c 0.84986,1.5073 1.75798,2.99915 2.69623,4.44891 l -3.56667,3.07118 c 1.55001,2.35589 3.21144,4.63566 4.97301,6.8323 l 4.02404,-2.444 c 1.09296,1.3442 2.2174,2.65841 3.39012,3.93356 l -3.01143,3.64256 c 1.92504,2.06234 3.95802,4.03173 6.07151,5.90666 l 3.56885,-3.10235 c 1.29911,1.13592 2.63066,2.23022 3.99921,3.28697 l -2.32277,4.09796 c 2.23232,1.69676 4.53793,3.32161 6.93152,4.80773 l 2.98025,-3.64474 c 1.47508,0.90159 2.98464,1.7588 4.51913,2.5715 l -1.59203,4.39967 c 2.48216,1.29094 5.02966,2.48256 7.64654,3.54202 l 2.32059,-4.06678 c 1.59985,0.63443 3.21034,1.21064 4.85855,1.74943 l -0.82358,4.61003 c 2.67709,0.85345 5.39462,1.56621 8.18107,2.16972 l 1.59204,-4.39967 c 1.68011,0.35154 3.38668,0.6693 5.10445,0.92081 l -0.0464,4.69571 c 2.03272,0.28256 4.08139,0.47335 6.15935,0.61866 0.75973,0.0531 1.52136,0.0941 2.27787,0.128 l 0.82358,-4.61002 c 1.72828,0.065 3.45768,0.0866 5.16549,0.0479 l 0.74165,4.6255 c 2.83736,-0.0842 5.63875,-0.31893 8.41062,-0.66492 l 0.0464,-4.6957 c 1.71101,-0.22659 3.41991,-0.47443 5.09965,-0.80248 l 1.50726,4.42843 c 2.79335,-0.56613 5.53006,-1.26526 8.22815,-2.08737 l -0.77282,-4.62768 c 1.64639,-0.51465 3.27652,-1.08363 4.88012,-1.69496 l 2.25042,4.10448 c 2.64046,-1.02883 5.24226,-2.16866 7.75857,-3.43591 l -1.53843,-4.4306 c 1.51593,-0.77716 3.002,-1.61116 4.46483,-2.47583 l 2.90659,3.68047 c 2.4281,-1.45888 4.78981,-3.02862 7.06425,-4.70619 l -2.24824,-4.13566 c 1.3724,-1.02845 2.7067,-2.08777 4.01401,-3.19653 l 3.50914,3.1274 c 2.13416,-1.83684 4.18462,-3.77435 6.13862,-5.80468 l -2.9066,-3.68047 c 1.16866,-1.23267 2.30424,-2.50117 3.3986,-3.80344 l 3.96018,2.50109 c 1.80563,-2.17904 3.51359,-4.43534 5.11075,-6.78502 l -3.53814,-3.16075 c 0.93885,-1.40341 1.85598,-2.8275 2.71211,-4.29002 l 4.38441,1.81025 c 1.41104,-2.45137 2.67207,-4.99789 3.85158,-7.59357 l -3.96018,-2.50109 c 0.68519,-1.53923 1.33045,-3.10153 1.92557,-4.68959 l 4.5636,1.03962 c 0.97541,-2.65863 1.81876,-5.37851 2.5438,-8.15492 l -4.32423,-1.77472 c 0.41556,-1.64057 0.77988,-3.28702 1.09913,-4.96667 l 4.68262,0.23351 c 0.50434,-2.75855 0.87283,-5.5631 1.1207,-8.41106 l -4.56359,-1.03963 c 0.0219,-0.27027 0.0377,-0.53943 0.0567,-0.81052 0.0992,-1.41831 0.14281,-2.84233 0.17177,-4.24836 l 4.67477,-0.55025 c 0.039,-2.8615 -0.0565,-5.67587 -0.2843,-8.47798 l -4.68262,-0.23351 c -0.15042,-1.69377 -0.36797,-3.38921 -0.61761,-5.0554 l 4.54223,-1.34267 c -0.44139,-2.80727 -1.07048,-5.57967 -1.76909,-8.29988 l -4.67477,0.55025 c -0.43432,-1.63723 -0.88546,-3.26165 -1.4144,-4.8605 l 4.21828,-2.08583 c -0.91397,-2.69858 -1.95171,-5.34281 -3.11109,-7.92382 l -4.54223,1.34267 c -0.70585,-1.53919 -1.45685,-3.05351 -2.25107,-4.5431 l 3.82762,-2.771 c -1.35073,-2.49046 -2.8354,-4.91843 -4.41036,-7.26284 l -4.21828,2.08583 c -0.95046,-1.39228 -1.94148,-2.76006 -2.97178,-4.09227 l 3.30573,-3.37137 c -1.74911,-2.22858 -3.61337,-4.38142 -5.56467,-6.43509 l -3.82761,2.771 c -1.17288,-1.21571 -2.36133,-2.3965 -3.6055,-3.54139 l 2.68377,-3.88475 c -2.08899,-1.89544 -4.28195,-3.68096 -6.54718,-5.37605 l -3.30573,3.37136 c -1.36246,-1.00324 -2.75898,-1.97008 -4.18341,-2.89261 l 1.99293,-4.30898 c -2.38615,-1.52086 -4.87394,-2.91985 -7.41154,-4.21477 l -2.6526,3.88693 c -1.50889,-0.75582 -3.05144,-1.47212 -4.612,-2.13943 l 1.22667,-4.55051 c -2.60209,-1.09065 -5.24678,-2.06064 -7.97289,-2.90699 l -1.99076,4.2778 c -1.61346,-0.48787 -3.23414,-0.91951 -4.88907,-1.31299 l 0.45386,-4.69854 c -2.74107,-0.63138 -5.54474,-1.15049 -8.38272,-1.52597 l -1.22885,4.58169 c -1.53916,-0.19203 -3.09917,-0.37334 -4.66518,-0.48285 -0.12512,-0.009 -0.24906,-0.018 -0.37409,-0.0262 l -0.36102,-4.69286 z"
       style="fill:#dcdcdc;fill-opacity:1;stroke:#000000;stroke-width:2;stroke-miterlimit:4;stroke-opacity:1;stroke-dasharray:none"
       inkscape:export-filename="/home/michael/src/photivo/photivo.png"
       inkscape:export-xdpi="31.838118"
       inkscape:export-ydpi="31.838118" />
    <path
       style="fill:#00aa44;stroke:none"
       d="M 550.71875 461.9375 C 545.21103 461.9375 540.78125 466.36728 540.78125 471.875 L 540.78125 490.53125 C 540.78125 496.03897 545.21103 500.46875 550.71875 500.46875 L 662.5 500.46875 C 662.92122 498.00923 663.24857 495.4986 663.46875 492.96875 L 658.90625 491.9375 C 658.92815 491.66723 658.94975 491.39609 658.96875 491.125 C 659.06795 489.70669 659.09604 488.28103 659.125 486.875 L 663.8125 486.34375 C 663.8515 483.48225 663.75905 480.64586 663.53125 477.84375 L 658.84375 477.625 C 658.69333 475.93123 658.46839 474.22869 658.21875 472.5625 L 662.78125 471.21875 C 662.33986 468.41148 661.69861 465.65771 661 462.9375 L 656.3125 463.46875 C 656.17621 462.955 656.04773 462.44833 655.90625 461.9375 L 550.71875 461.9375 z "
       id="rect3028"
       inkscape:export-filename="/home/michael/src/photivo/photivo.png"
       inkscape:export-xdpi="31.838118"
       inkscape:export-ydpi="31.838118" />
    <text
       sodipodi:linespacing="0%"
       id="text3030"
       y="490.2038"
       x="552.31274"
       style="font-size:40px;font-style:normal;font-variant:normal;font-weight:500;font-stretch:normal;line-height:0%;letter-spacing:0px;word-spacing:0px;fill:#000000;fill-opacity:1;stroke:none;font-family:mm stenxil;-inkscape-font-specification:mm stenxil Medium"
       xml:space="preserve"
       inkscape:export-filename="/home/michael/src/photivo/photivo.png"
       inkscape:export-xdpi="31.838118"
       inkscape:export-ydpi="31.838118"><tspan
         style="font-size:36px;letter-spacing:-1px"
         dx="0"
         y="490.2038"
         x="552.31274"
         id="tspan3032"
         sodipodi:role="line">photivo</tspan></text>
    <text
       transform="matrix(0.76604444,0.64278761,-0.64278761,0.76604444,0,0)"
       sodipodi:linespacing="0%"
       id="text3034"
       y="10.23788"
       x="799.51776"
       style="font-size:28px;font-style:normal;font-variant:normal;font-weight:bold;font-stretch:normal;line-height:0%;letter-spacing:0px;word-spacing:0px;fill:#464646;fill-opacity:1;stroke:none;font-family:Droid Sans;-inkscape-font-specification:Droid Sans Bold"
       xml:space="preserve"
       inkscape:export-filename="/home/michael/src/photivo/photivo.png"
       inkscape:export-xdpi="31.838118"
       inkscape:export-ydpi="31.838118"><tspan
         y="10.23788"
         x="799.51776"
         id="tspan3036"
         sodipodi:role="line">Av</tspan></text>
    <text
       transform="matrix(0.17364818,0.98480775,-0.98480775,0.17364818,0,0)"
       sodipodi:linespacing="0%"
       id="text3038"
       y="-472.2027"
       x="625.95532"
       style="font-size:28px;font-style:normal;font-variant:normal;font-weight:bold;font-stretch:normal;line-height:0%;letter-spacing:0px;word-spacing:0px;fill:#464646;fill-opacity:1;stroke:none;font-family:Droid Sans;-inkscape-font-specification:Droid Sans Bold"
       xml:space="preserve"
       inkscape:export-filename="/home/michael/src/photivo/photivo.png"
       inkscape:export-xdpi="31.838118"
       inkscape:export-ydpi="31.838118"><tspan
         y="-472.2027"
         x="625.95532"
         id="tspan3040"
         sodipodi:role="line">Tv</tspan></text>
    <text
       transform="matrix(0.76604444,-0.64278761,0.64278761,0.76604444,0,0)"
       sodipodi:linespacing="0%"
       id="text3042"
       y="749.85004"
       x="183.8756"
       style="font-size:28px;font-style:normal;font-variant:normal;font-weight:bold;font-stretch:normal;line-height:0%;letter-spacing:0px;word-spacing:0px;fill:#464646;fill-opacity:1;stroke:none;font-family:Droid Sans;-inkscape-font-specification:Sans Bold"
       xml:space="preserve"
       inkscape:export-filename="/home/michael/src/photivo/photivo.png"
       inkscape:export-xdpi="31.838118"
       inkscape:export-ydpi="31.838118"><tspan
         y="749.85004"
         x="183.8756"
         id="tspan3044"
         sodipodi:role="line">M</tspan></text>
    <text
       transform="matrix(-0.5,0.8660254,-0.8660254,-0.5,0,0)"
       sodipodi:linespacing="0%"
       id="text3046"
       y="-728.99097"
       x="189.43675"
       style="font-size:28px;font-style:normal;font-variant:normal;font-weight:bold;font-stretch:normal;line-height:0%;letter-spacing:0px;word-spacing:0px;fill:#464646;fill-opacity:1;stroke:none;font-family:Droid Sans;-inkscape-font-specification:Sans Bold"
       xml:space="preserve"
       inkscape:export-filename="/home/michael/src/photivo/photivo.png"
       inkscape:export-xdpi="31.838118"
       inkscape:export-ydpi="31.838118"><tspan
         y="-728.99097"
         x="189.43675"
         id="tspan3048"
         sodipodi:role="line">S</tspan></text>
    <text
       transform="matrix(0.17364818,-0.98480775,0.98480775,0.17364818,0,0)"
       sodipodi:linespacing="0%"
       id="text3050"
       y="661.10858"
       x="-319.37521"
       style="font-size:28px;font-style:normal;font-variant:normal;font-weight:bold;font-stretch:normal;line-height:0%;letter-spacing:0px;word-spacing:0px;fill:#464646;fill-opacity:1;stroke:none;font-family:Droid Sans;-inkscape-font-specification:Sans Bold"
       xml:space="preserve"
       inkscape:export-filename="/home/michael/src/photivo/photivo.png"
       inkscape:export-xdpi="31.838118"
       inkscape:export-ydpi="31.838118"><tspan
         y="661.10858"
         x="-319.37521"
         id="tspan3052"
         sodipodi:role="line">B</tspan></text>
    <text
       transform="matrix(-0.93969262,0.34202014,-0.34202014,-0.93969262,0,0)"
       sodipodi:linespacing="0%"
       id="text3054"
       y="-638.54456"
       x="-317.73151"
       style="font-size:28px;font-style:normal;font-variant:normal;font-weight:bold;font-stretch:normal;line-height:0%;letter-spacing:0px;word-spacing:0px;fill:#464646;fill-opacity:1;stroke:none;font-family:Droid Sans;-inkscape-font-specification:Sans Bold"
       xml:space="preserve"
       inkscape:export-filename="/home/michael/src/photivo/photivo.png"
       inkscape:export-xdpi="31.838118"
       inkscape:export-ydpi="31.838118"><tspan
         y="-638.54456"
         x="-317.73151"
         id="tspan3056"
         sodipodi:role="line">X</tspan></text>
    <path
       style="fill:none;fill-opacity:1;stroke:#000000;stroke-width:2;stroke-miterlimit:4;stroke-opacity:1;stroke-dasharray:none"
       d="m 579.53941,395.89268 c -2.85973,-0.16659 -5.70665,-0.19509 -8.51417,-0.0941 l -0.42263,4.70072 c -1.69873,0.0736 -3.39512,0.1927 -5.06913,0.36604 l -1.15127,-4.59149 c -2.83787,0.31496 -5.63841,0.77815 -8.39623,1.3551 l 0.36102,4.69287 c -1.6583,0.36014 -3.32035,0.79558 -4.94313,1.25198 l -1.92124,-4.33207 c -2.7265,0.78979 -5.40683,1.72205 -8.02453,2.75946 l 1.15344,4.56032 c -1.58802,0.64259 -3.14773,1.34939 -4.68806,2.08431 l -2.60641,-3.94142 c -2.54406,1.23682 -5.0197,2.58876 -7.42591,4.05437 l 1.92124,4.33207 c -1.45577,0.9009 -2.90282,1.81518 -4.29958,2.80065 l -3.23578,-3.45288 c -2.29783,1.64699 -4.50269,3.41456 -6.63369,5.26885 l 2.60641,3.94141 c -1.28205,1.13208 -2.51188,2.32245 -3.72407,3.53007 l -3.80932,-2.86646 c -1.98264,2.00427 -3.88116,4.08932 -5.67036,6.276 l 3.26695,3.45506 c -1.07755,1.33609 -2.10954,2.70334 -3.10648,4.1058 l -4.20237,-2.17344 c -1.61779,2.31218 -3.11238,4.70206 -4.51125,7.17153 l 3.78033,2.83311 c -0.83466,1.49718 -1.6413,3.01021 -2.38664,4.56338 l -4.50626,-1.41153 c -1.19587,2.54209 -2.28312,5.1525 -3.24119,7.82422 l 4.20238,2.17343 c -0.56531,1.61368 -1.09505,3.24384 -1.56457,4.90281 l -4.68545,-0.6409 c -0.74388,2.70451 -1.33919,5.46008 -1.83117,8.2674 l 4.50627,1.41153 c -0.28299,1.68319 -0.517,3.37047 -0.70042,5.08854 l -4.74213,0.16961 c -0.087,0.87645 -0.15457,1.76318 -0.21642,2.64761 -0.13649,1.95195 -0.17637,3.88418 -0.18724,5.8136 l 4.65428,0.63872 c 0.002,1.72759 0.0668,3.44483 0.17246,5.14957 l -4.64076,0.95987 c 0.19778,2.83856 0.55037,5.63736 1.01001,8.40342 l 4.67979,-0.17397 c 0.29651,1.71069 0.65574,3.40957 1.05404,5.08591 l -4.37916,1.69865 c 0.67386,2.74624 1.45589,5.44642 2.37883,8.0919 l 4.64076,-0.95986 c 0.58359,1.6351 1.20634,3.24189 1.88637,4.83085 l -4.05521,2.44182 c 1.1275,2.5811 2.37288,5.10848 3.73173,7.55998 l 4.41251,-1.72765 c 0.84986,1.5073 1.75798,2.99915 2.69623,4.44891 l -3.56667,3.07118 c 1.55001,2.35589 3.21144,4.63566 4.97301,6.8323 l 4.02404,-2.444 c 1.09296,1.3442 2.2174,2.65841 3.39012,3.93356 l -3.01143,3.64256 c 1.92504,2.06234 3.95802,4.03173 6.07151,5.90666 l 3.56885,-3.10235 c 1.29911,1.13592 2.63066,2.23022 3.99921,3.28697 l -2.32277,4.09796 c 2.23232,1.69676 4.53793,3.32161 6.93152,4.80773 l 2.98025,-3.64474 c 1.47508,0.90159 2.98464,1.7588 4.51913,2.5715 l -1.59203,4.39967 c 2.48216,1.29094 5.02966,2.48256 7.64654,3.54202 l 2.32059,-4.06678 c 1.59985,0.63443 3.21034,1.21064 4.85855,1.74943 l -0.82358,4.61003 c 2.67709,0.85345 5.39462,1.56621 8.18107,2.16972 l 1.59204,-4.39967 c 1.68011,0.35154 3.38668,0.6693 5.10445,0.92081 l -0.0464,4.69571 c 2.03272,0.28256 4.08139,0.47335 6.15935,0.61866 0.75973,0.0531 1.52136,0.0941 2.27787,0.128 l 0.82358,-4.61002 c 1.72828,0.065 3.45768,0.0866 5.16549,0.0479 l 0.74165,4.6255 c 2.83736,-0.0842 5.63875,-0.31893 8.41062,-0.66492 l 0.0464,-4.6957 c 1.71101,-0.22659 3.41991,-0.47443 5.09965,-0.80248 l 1.50726,4.42843 c 2.79335,-0.56613 5.53006,-1.26526 8.22815,-2.08737 l -0.77282,-4.62768 c 1.64639,-0.51465 3.27652,-1.08363 4.88012,-1.69496 l 2.25042,4.10448 c 2.64046,-1.02883 5.24226,-2.16866 7.75857,-3.43591 l -1.53843,-4.4306 c 1.51593,-0.77716 3.002,-1.61116 4.46483,-2.47583 l 2.90659,3.68047 c 2.4281,-1.45888 4.78981,-3.02862 7.06425,-4.70619 l -2.24824,-4.13566 c 1.3724,-1.02845 2.7067,-2.08777 4.01401,-3.19653 l 3.50914,3.1274 c 2.13416,-1.83684 4.18462,-3.77435 6.13862,-5.80468 l -2.9066,-3.68047 c 1.16866,-1.23267 2.30424,-2.50117 3.3986,-3.80344 l 3.96018,2.50109 c 1.80563,-2.17904 3.51359,-4.43534 5.11075,-6.78502 l -3.53814,-3.16075 c 0.93885,-1.40341 1.85598,-2.8275 2.71211,-4.29002 l 4.38441,1.81025 c 1.41104,-2.45137 2.67207,-4.99789 3.85158,-7.59357 l -3.96018,-2.50109 c 0.68519,-1.53923 1.33045,-3.10153 1.92557,-4.68959 l 4.5636,1.03962 c 0.97541,-2.65863 1.81876,-5.37851 2.5438,-8.15492 l -4.32423,-1.77472 c 0.41556,-1.64057 0.77988,-3.28702 1.09913,-4.96667 l 4.68262,0.23351 c 0.50434,-2.75855 0.87283,-5.5631 1.1207,-8.41106 l -4.56359,-1.03963 c 0.0219,-0.27027 0.0377,-0.53943 0.0567,-0.81052 0.0992,-1.41831 0.14281,-2.84233 0.17177,-4.24836 l 4.67477,-0.55025 c 0.039,-2.8615 -0.0565,-5.67587 -0.2843,-8.47798 l -4.68262,-0.23351 c -0.15042,-1.69377 -0.36797,-3.38921 -0.61761,-5.0554 l 4.54223,-1.34267 c -0.44139,-2.80727 -1.07048,-5.57967 -1.76909,-8.29988 l -4.67477,0.55025 c -0.43432,-1.63723 -0.88546,-3.26165 -1.4144,-4.8605 l 4.21828,-2.08583 c -0.91397,-2.69858 -1.95171,-5.34281 -3.11109,-7.92382 l -4.54223,1.34267 c -0.70585,-1.53919 -1.45685,-3.05351 -2.25107,-4.5431 l 3.82762,-2.771 c -1.35073,-2.49046 -2.8354,-4.91843 -4.41036,-7.26284 l -4.21828,2.08583 c -0.95046,-1.39228 -1.94148,-2.76006 -2.97178,-4.09227 l 3.30573,-3.37137 c -1.74911,-2.22858 -3.61337,-4.38142 -5.56467,-6.43509 l -3.82761,2.771 c -1.17288,-1.21571 -2.36133,-2.3965 -3.6055,-3.54139 l 2.68377,-3.88475 c -2.08899,-1.89544 -4.28195,-3.68096 -6.54718,-5.37605 l -3.30573,3.37136 c -1.36246,-1.00324 -2.75898,-1.97008 -4.18341,-2.89261 l 1.99293,-4.30898 c -2.38615,-1.52086 -4.87394,-2.91985 -7.41154,-4.21477 l -2.6526,3.88693 c -1.50889,-0.75582 -3.05144,-1.47212 -4.612,-2.13943 l 1.22667,-4.55051 c -2.60209,-1.09065 -5.24678,-2.06064 -7.97289,-2.90699 l -1.99076,4.2778 c -1.61346,-0.48787 -3.23414,-0.91951 -4.88907,-1.31299 l 0.45386,-4.69854 c -2.74107,-0.63138 -5.54474,-1.15049 -8.38272,-1.52597 l -1.22885,4.58169 c -1.53916,-0.19203 -3.09917,-0.37334 -4.66518,-0.48285 -0.12512,-0.009 -0.24906,-0.018 -0.37409,-0.0262 l -0.36102,-4.69286 z"
       id="path3067"
       inkscape:connector-curvature="0"
       inkscape:export-filename="/home/michael/src/photivo/photivo.png"
       inkscape:export-xdpi="31.838118"
       inkscape:export-ydpi="31.838118" />
  </g>
</svg>
